<svg width="92" height="36" viewBox="0 0 92 36" fill="none" xmlns="http://www.w3.org/2000/svg">
<path d="M44.855 12.5195L42.7502 11.753C43.6478 10.0372 44.4423 7.83085 45.1336 5.12807L47.1971 5.42355C46.6385 7.97934 45.8765 10.3116 44.8918 12.422C44.8727 12.455 44.8579 12.4865 44.855 12.5195ZM52.8056 9.10874L50.462 10.1467C50.4222 9.25723 50.2438 8.12032 49.9387 6.73444L46.9819 23.7715H44.0458L48.1361 0.157487H51.0781L50.2542 4.90609L51.6883 4.33614C52.3221 6.19748 52.6936 7.78885 52.8056 9.10874ZM65.7441 14.2503H59.863C60.6177 17.649 62.3555 19.9063 65.0764 21.0252C64.2672 21.6702 63.4757 22.5191 62.693 23.5735C62.6237 23.689 62.5545 23.7865 62.494 23.869C59.8541 22.4681 58.1208 19.9873 57.2983 16.4281C55.6106 19.6094 53.0724 22.1052 49.6808 23.92C49.4214 23.2751 48.8863 22.5266 48.0771 21.6702C48.0344 21.6372 48.0078 21.6117 47.9931 21.5952C51.4938 19.9813 53.9376 17.5335 55.3173 14.2518H50.3573L50.8585 11.3841H56.2002C56.3505 10.8246 56.5082 10.0507 56.6777 9.06075L57.0772 6.76144H52.7997L53.2832 3.96717H57.5606L58.2195 0.158987H61.2072L60.5454 3.96717H65.9697L64.6799 11.3841H66.2379L65.7441 14.2503ZM60.0664 6.75844L59.661 9.08324C59.5313 9.83918 59.3736 10.6071 59.1923 11.3811H61.7924L62.5957 6.75694L60.0664 6.75844Z" fill="#262626"/>
<path d="M73.1744 18.3075L75.7539 19.3784C74.047 20.8408 71.9422 22.1277 69.432 23.2391C69.2168 23.3381 69.009 23.431 68.7953 23.5135C68.3118 22.8176 67.7104 22.1442 66.9926 21.4947C66.9616 21.4797 66.941 21.4617 66.9292 21.4467C69.5396 20.5813 71.5929 19.5614 73.0875 18.3825C73.1287 18.348 73.1538 18.324 73.1744 18.3075ZM90.9196 17.1871L88.4006 18.8549C88.1382 18.474 87.8508 18.0915 87.525 17.709C86.0938 17.7585 83.7502 17.8155 80.4927 17.883L79.4742 23.761H76.5631L77.5683 17.9565C76.143 17.9895 74.1281 18.0315 71.5251 18.081C69.97 18.0975 68.6081 18.114 67.9492 18.1305L68.3693 15.7142C69.317 15.7142 71.1964 15.6977 73.8274 15.6647C73.9365 15.5972 74.106 15.5147 74.3374 15.4142C74.4981 15.3317 74.6145 15.2732 74.6852 15.2402C73.649 14.3433 72.4139 13.4629 70.9797 12.6005L73.2054 10.9071C73.5945 11.1231 73.9851 11.3541 74.386 11.6045C74.8636 11.2896 75.5667 10.7586 76.4968 10.0102H69.3745L69.774 7.69436H79.3209L79.4904 6.72244H72.6128L72.9872 4.55662H79.8648L80.0313 3.5862H71.8818L72.262 1.39488H80.4116L80.6563 0H83.6161L83.3773 1.39488H91.9912L91.6109 3.5862H82.994L82.8275 4.55662H90.1222L89.7448 6.72244H82.4531L82.2836 7.69436H92L91.6006 10.0102H83.5718L85.6251 11.3046C83.2608 12.8659 80.8553 14.3028 78.3908 15.6137L85.3141 15.4892C84.269 14.6418 83.7074 14.1858 83.619 14.1198L85.9656 12.6005C87.9864 14.0283 89.5355 15.4217 90.6233 16.7851C90.7265 16.9366 90.8238 17.0701 90.9196 17.1871ZM83.0309 10.0132H80.3645C78.8537 11.1096 77.4593 12.038 76.1843 12.8029C76.737 13.1854 77.1453 13.4914 77.4195 13.7239C79.4933 12.512 81.3623 11.2746 83.0309 10.0132ZM81.7529 19.7774L84.2263 18.2325C86.6392 19.5599 88.3608 20.6983 89.3881 21.6432L86.7453 23.3366C85.6693 22.2911 84.1113 21.1617 82.0699 19.9483C81.949 19.8838 81.8458 19.8268 81.7529 19.7774Z" fill="#262626"/>
<path d="M45.3989 27.0307L43.7672 35.874H41.8569L43.493 27.0307H45.3989ZM49.5334 27.0307L49.2681 28.4586H44.6162L44.8786 27.0307H49.5334ZM48.3896 30.8104L48.1272 32.2323H43.9161L44.1784 30.8104H48.3896Z" fill="#6157E6"/>
<path d="M53.3701 31.8723L53.2006 32.8623H52.1792C51.9345 32.8623 51.7208 32.8893 51.5321 32.9417C51.3449 32.9957 51.1872 33.0677 51.0545 33.1637C50.9219 33.2597 50.8187 33.3692 50.7406 33.4952C50.6654 33.6197 50.6138 33.7592 50.5858 33.9077C50.5593 34.0577 50.5711 34.1911 50.6197 34.3126C50.6713 34.4326 50.7583 34.5256 50.8821 34.5916C51.0029 34.6591 51.1562 34.6921 51.3405 34.6921C51.6176 34.6921 51.8637 34.6411 52.0892 34.5346C52.3103 34.4296 52.4916 34.3006 52.6331 34.1446C52.7746 33.9902 52.8572 33.8447 52.8896 33.7082L53.2345 34.4476C53.1372 34.6141 53.0134 34.7881 52.8631 34.9651C52.7127 35.1406 52.5344 35.3086 52.331 35.466C52.1232 35.622 51.8844 35.7495 51.6176 35.847C51.3464 35.946 51.0413 36 50.6963 36C50.2615 36 49.8812 35.9145 49.5599 35.745C49.2371 35.5785 48.9983 35.3461 48.8495 35.0476C48.6991 34.7491 48.6593 34.4131 48.7286 34.0292C48.792 33.6857 48.9187 33.3797 49.103 33.1142C49.2872 32.8458 49.529 32.6208 49.8282 32.4363C50.1274 32.2518 50.4841 32.1123 50.9027 32.0178C51.3169 31.9233 51.7871 31.8738 52.3133 31.8738L53.3701 31.8723ZM52.6656 34.3906L53.2065 31.4659C53.2434 31.2544 53.2404 31.0729 53.1977 30.9214C53.152 30.7684 53.0621 30.6499 52.9294 30.566C52.7938 30.4805 52.6096 30.4385 52.3708 30.4385C52.1659 30.4385 51.9817 30.4715 51.8239 30.539C51.6633 30.6049 51.5306 30.7009 51.4289 30.8239C51.3257 30.9484 51.2565 31.0924 51.224 31.2589H49.3934C49.4449 30.9784 49.5629 30.7144 49.7442 30.4625C49.9255 30.212 50.1642 29.99 50.4576 29.798C50.7509 29.606 51.0884 29.4545 51.4687 29.3451C51.846 29.2356 52.2573 29.1816 52.701 29.1816C53.236 29.1816 53.6974 29.2671 54.0806 29.4365C54.4668 29.606 54.7454 29.861 54.9208 30.2015C55.0991 30.542 55.1389 30.9664 55.0475 31.4764L54.5257 34.2886C54.4594 34.6486 54.4284 34.9426 54.4329 35.1706C54.4358 35.3985 54.4668 35.598 54.5257 35.7705L54.508 35.8725H52.6538C52.5992 35.694 52.5727 35.4705 52.5786 35.2021C52.5845 34.9336 52.614 34.6636 52.6656 34.3906Z" fill="#6157E6"/>
<path d="M59.7009 34.0592C59.7244 33.9347 59.7097 33.8207 59.6493 33.7187C59.5947 33.6182 59.4709 33.5237 59.2808 33.4367C59.0906 33.3497 58.812 33.2702 58.4377 33.1967C58.1031 33.1247 57.798 33.0332 57.5194 32.9208C57.2408 32.8083 57.0064 32.6748 56.8163 32.5158C56.6291 32.3598 56.4905 32.1708 56.4109 31.9548C56.324 31.7374 56.3107 31.4884 56.3623 31.2094C56.4139 30.9349 56.523 30.6754 56.6969 30.431C56.8634 30.188 57.086 29.972 57.3528 29.7845C57.627 29.597 57.9394 29.4485 58.3035 29.3406C58.6602 29.2341 59.0552 29.1801 59.4842 29.1801C60.0826 29.1801 60.5808 29.2716 60.9788 29.4545C61.3768 29.636 61.6612 29.8865 61.8307 30.2045C62.0032 30.521 62.0518 30.8839 61.9781 31.2889H60.1475C60.1784 31.1194 60.171 30.9664 60.1209 30.8299C60.0708 30.6934 59.9765 30.587 59.8365 30.5075C59.6964 30.428 59.5019 30.389 59.2572 30.389C59.0552 30.389 58.871 30.422 58.7103 30.4895C58.5526 30.5555 58.42 30.6454 58.3212 30.7564C58.221 30.8674 58.1605 30.9904 58.134 31.1239C58.1134 31.2244 58.1222 31.3159 58.1517 31.3954C58.1812 31.4734 58.2446 31.5469 58.333 31.6099C58.4229 31.6744 58.5438 31.7344 58.6956 31.7899C58.8489 31.8453 59.0435 31.8948 59.2749 31.9383C59.7554 32.0343 60.1755 32.1603 60.5351 32.3193C60.8977 32.4753 61.166 32.6853 61.3473 32.9493C61.5256 33.2162 61.5772 33.5627 61.5006 33.9917C61.446 34.2841 61.3281 34.5511 61.1468 34.7911C60.9655 35.0371 60.7356 35.2471 60.4467 35.4255C60.1563 35.607 59.8276 35.748 59.4562 35.844C59.0818 35.943 58.6764 35.997 58.2328 35.997C57.596 35.997 57.0728 35.886 56.6718 35.6655C56.2694 35.448 55.9835 35.1706 55.8199 34.8316C55.6563 34.4941 55.6047 34.1462 55.6695 33.7907H57.4088C57.3749 34.0292 57.4 34.2211 57.4987 34.3666C57.5886 34.5136 57.7228 34.6186 57.9011 34.6831C58.0795 34.7476 58.2755 34.7791 58.4966 34.7791C58.7354 34.7791 58.9373 34.7491 59.1068 34.6846C59.2734 34.6231 59.409 34.5376 59.5122 34.4311C59.6124 34.3261 59.6787 34.2001 59.7009 34.0592Z" fill="#6157E6"/>
<path d="M66.9218 29.3031L66.6948 30.542H62.6871L62.9141 29.3031H66.9218ZM64.2097 27.6817H66.0404L64.8922 33.8957C64.8583 34.0862 64.8583 34.2331 64.8892 34.3321C64.9231 34.4326 64.9895 34.5016 65.0912 34.5436C65.1884 34.5796 65.3182 34.6006 65.4832 34.6006C65.5953 34.6006 65.6984 34.5931 65.7943 34.5841C65.8871 34.5736 65.9667 34.5616 66.033 34.5526L65.8031 35.838C65.6336 35.8875 65.4582 35.9265 65.271 35.955C65.0838 35.982 64.8789 35.9985 64.6608 35.9985C64.2554 35.9985 63.9149 35.931 63.6423 35.805C63.3696 35.679 63.1735 35.4735 63.0659 35.1901C62.9569 34.9066 62.9451 34.5331 63.0291 34.0712L64.2097 27.6817Z" fill="#6157E6"/>
<path d="M66.8747 32.6568L66.8983 32.5278C66.9882 32.0463 67.1429 31.6024 67.3611 31.1944C67.5792 30.7879 67.8563 30.4355 68.188 30.134C68.5196 29.834 68.8984 29.6015 69.3333 29.4335C69.7681 29.2641 70.2427 29.1816 70.7674 29.1816C71.2863 29.1816 71.7344 29.2656 72.1146 29.4335C72.489 29.6015 72.7882 29.8355 73.0093 30.134C73.2334 30.434 73.3778 30.7864 73.4471 31.1944C73.5164 31.6024 73.5076 32.0448 73.4176 32.5278L73.3911 32.6568C73.3041 33.1337 73.1494 33.5762 72.9297 33.9842C72.7116 34.3906 72.4345 34.7461 72.1029 35.0461C71.7653 35.3475 71.3836 35.5815 70.9517 35.7465C70.5198 35.913 70.0422 35.9985 69.5175 35.9985C68.9957 35.9985 68.5506 35.913 68.1732 35.7465C67.8018 35.583 67.5026 35.3475 67.2785 35.0461C67.0604 34.7446 66.9159 34.3891 66.8437 33.9842C66.7774 33.5762 66.7892 33.1337 66.8747 32.6568ZM68.7289 32.5278L68.7083 32.6568C68.6567 32.9328 68.6331 33.1877 68.642 33.4277C68.6479 33.6647 68.6906 33.8762 68.7687 34.0562C68.8498 34.2361 68.9707 34.3771 69.1343 34.4776C69.2979 34.5796 69.5087 34.6321 69.774 34.6321C70.0275 34.6321 70.2545 34.5811 70.4564 34.4776C70.6584 34.3771 70.8308 34.2361 70.9753 34.0562C71.1197 33.8762 71.2376 33.6647 71.3349 33.4277C71.4322 33.1877 71.5044 32.9328 71.556 32.6568L71.5796 32.5278C71.6282 32.2608 71.6489 32.0088 71.64 31.7719C71.6312 31.5349 71.5855 31.3249 71.5074 31.1404C71.4292 30.9559 71.3084 30.8119 71.1477 30.7069C70.9841 30.6004 70.7733 30.548 70.5139 30.548C70.2545 30.548 70.0246 30.6004 69.8256 30.7069C69.6266 30.8119 69.4541 30.9559 69.3067 31.1404C69.1593 31.3264 69.0385 31.5364 68.9471 31.7719C68.8498 32.0088 68.7805 32.2608 68.7289 32.5278Z" fill="#6157E6"/>
<path d="M77.0009 34.6306C77.222 34.6306 77.4298 34.5886 77.6199 34.5046C77.8101 34.4206 77.9678 34.3051 78.0946 34.1537C78.2243 34.0007 78.3083 33.8222 78.351 33.6182H80.0756C79.9856 34.0787 79.7793 34.4881 79.4594 34.8451C79.1396 35.2051 78.746 35.4855 78.2788 35.691C77.816 35.8935 77.3178 35.9985 76.7842 35.9985C76.2506 35.9985 75.8025 35.91 75.437 35.7405C75.0714 35.571 74.787 35.3356 74.5762 35.0341C74.3683 34.7326 74.2372 34.3786 74.1812 33.9767C74.1237 33.5717 74.1384 33.1412 74.2209 32.6793L74.2549 32.5038C74.3418 32.0373 74.4877 31.6024 74.6926 31.2004C74.9004 30.7969 75.1584 30.4445 75.4782 30.143C75.7981 29.84 76.1695 29.6045 76.5955 29.435C77.0215 29.2641 77.4991 29.1801 78.0297 29.1801C78.5913 29.1801 79.0688 29.2836 79.458 29.4905C79.8471 29.6975 80.1257 29.9915 80.3011 30.374C80.4735 30.7564 80.5119 31.2094 80.422 31.7314H78.6974C78.7343 31.5124 78.7239 31.3144 78.6635 31.1374C78.606 30.9589 78.5028 30.8164 78.3495 30.7084C78.1963 30.6005 77.9958 30.548 77.7452 30.548C77.477 30.548 77.25 30.6019 77.0598 30.7084C76.8697 30.8149 76.7149 30.9619 76.5852 31.1464C76.4584 31.3309 76.3553 31.5394 76.2771 31.7719C76.199 32.0043 76.1356 32.2488 76.087 32.5038L76.056 32.6793C76.0104 32.9343 75.9809 33.1802 75.9691 33.4142C75.9602 33.6482 75.9897 33.8567 76.0472 34.0412C76.1106 34.2211 76.2138 34.3651 76.3671 34.4701C76.5159 34.5781 76.7267 34.6306 77.0009 34.6306Z" fill="#6157E6"/>
<path d="M84.2661 26.5403L82.5445 35.8755H80.7109L82.4354 26.5403H84.2661ZM88.0925 29.3031L84.5049 32.5578L82.6167 34.1057L82.1789 32.8428L83.7369 31.2994L85.8963 29.3016H88.0925V29.3031ZM84.978 35.8755L83.507 32.8368L84.9662 31.7808L87.0932 35.874H84.978V35.8755Z" fill="#6157E6"/>
<path d="M34.7612 27.4882C33.9874 31.9593 29.7527 35.6205 25.3558 35.6205H6.70712C2.31173 35.6205 -0.65095 31.9593 0.122885 27.4882L3.41132 8.51029C4.18663 4.03616 8.4184 0.374969 12.8138 0.374969H31.4654C35.8623 0.374969 38.8235 4.03616 38.0497 8.51029L34.7612 27.4882Z" fill="#262626"/>
<path d="M15.7057 9.83618H23.3586C23.6608 9.83618 23.957 9.5812 24.0101 9.27073L24.3624 7.2354C24.4169 6.92342 24.2091 6.66994 23.904 6.66994H16.8097C16.5046 6.66994 16.0153 6.66994 15.7205 6.66994C15.4257 6.66994 14.9378 6.66994 14.6312 6.66994H13.0349C12.7283 6.66994 12.435 6.92342 12.3819 7.2354L8.65277 28.7646C8.59823 29.0766 8.80311 29.3301 9.1097 29.3301H11.7761C12.0827 29.3301 12.3745 29.0766 12.4291 28.7646L15.7057 9.83618Z" fill="white"/>
<path d="M27.4651 26.7398C27.5167 26.4293 27.4268 26.1983 27.2631 26.2253C27.2631 26.2253 27.2631 26.2253 27.073 26.2463C26.8829 26.2703 26.6721 26.2808 26.4348 26.2808C26.1031 26.2808 25.8408 26.2388 25.6373 26.1548C25.4339 26.0678 25.2983 25.9193 25.2291 25.6959C25.1568 25.4769 25.176 25.3074 25.176 25.3074C25.2055 24.9984 25.2748 24.4885 25.3293 24.1765L26.423 17.8605H28.4467C28.7533 17.8605 29.0466 17.6055 29.0997 17.2951L29.452 15.2612C29.5065 14.9508 29.3002 14.6958 28.9936 14.6958H26.9713L27.4798 11.756C27.5329 11.444 27.3265 11.1906 27.0214 11.1906H24.383C24.0764 11.1906 23.7816 11.444 23.7286 11.756L23.22 14.6958H17.2726C16.9674 14.6958 16.6741 14.9508 16.6211 15.2612L16.2688 17.2951C16.2157 17.6055 16.4206 17.8605 16.7257 17.8605H22.6761L21.5146 24.562C21.4601 24.8739 21.3967 25.3794 21.3702 25.6899C21.3702 25.6899 21.267 26.9468 21.4896 27.5647C21.7107 28.1826 22.1042 28.6311 22.6673 28.9101C23.2333 29.1891 23.9261 29.3256 24.7515 29.3256C25.2025 29.3256 25.6182 29.2941 26.0044 29.2326C26.3905 29.1696 26.5276 29.1321 26.5276 29.1321C26.8342 29.0496 27.129 28.7256 27.1835 28.4151L27.4651 26.7398Z" fill="white"/>
</svg>
