<svg width="43" height="40" viewBox="0 0 43 40" fill="none" xmlns="http://www.w3.org/2000/svg">
<path d="M38.9175 30.5424C38.0511 35.5104 33.3101 39.5784 28.3875 39.5784H7.50906C2.58814 39.5784 -0.728781 35.5104 0.137578 30.5424L3.81919 9.45587C4.6872 4.48462 9.42495 0.416626 14.3459 0.416626H35.2276C40.1502 0.416626 43.4654 4.48462 42.5991 9.45587L38.9175 30.5424Z" fill="#262626"/>
<path d="M17.5836 10.9291H26.1515C26.4898 10.9291 26.8214 10.6458 26.8809 10.3008L27.2753 8.03932C27.3363 7.69269 27.1036 7.41104 26.762 7.41104H18.8196C18.478 7.41104 17.9301 7.41104 17.6001 7.41104C17.27 7.41104 16.7238 7.41104 16.3806 7.41104H14.5934C14.2502 7.41104 13.9218 7.69269 13.8624 8.03932L9.68733 31.9607C9.62628 32.3073 9.85565 32.5889 10.1989 32.5889H13.1841C13.5274 32.5889 13.8541 32.3073 13.9152 31.9607L17.5836 10.9291Z" fill="white"/>
<path d="M30.7489 29.7108C30.8067 29.3659 30.706 29.1092 30.5229 29.1392C30.5229 29.1392 30.5229 29.1392 30.31 29.1626C30.0971 29.1892 29.8611 29.2009 29.5954 29.2009C29.2241 29.2009 28.9304 29.1542 28.7027 29.0609C28.475 28.9642 28.3231 28.7993 28.2456 28.5509C28.1647 28.3076 28.1862 28.1193 28.1862 28.1193C28.2192 27.776 28.2967 27.2094 28.3578 26.8628L29.5822 19.845H31.848C32.1912 19.845 32.5196 19.5617 32.579 19.2167L32.9734 16.9569C33.0345 16.6119 32.8034 16.3286 32.4602 16.3286H30.1961L30.7654 13.0622C30.8248 12.7156 30.5938 12.434 30.2522 12.434H27.2984C26.9551 12.434 26.6251 12.7156 26.5657 13.0622L25.9963 16.3286H19.3378C18.9962 16.3286 18.6678 16.6119 18.6084 16.9569L18.214 19.2167C18.1546 19.5617 18.3839 19.845 18.7255 19.845H25.3874L24.087 27.291C24.026 27.6377 23.955 28.1993 23.9253 28.5443C23.9253 28.5443 23.8098 29.9408 24.059 30.6274C24.3065 31.314 24.7471 31.8123 25.3775 32.1223C26.0112 32.4323 26.7868 32.5839 27.7109 32.5839C28.2159 32.5839 28.6812 32.5489 29.1136 32.4806C29.5459 32.4106 29.6994 32.369 29.6994 32.369C30.0427 32.2773 30.3727 31.9173 30.4338 31.5724L30.7489 29.7108Z" fill="white"/>
</svg>
