<svg width="110" height="43" viewBox="0 0 110 43" fill="none" xmlns="http://www.w3.org/2000/svg">
<path d="M53.631 14.9538L51.1143 14.0383C52.1876 11.9888 53.1375 9.35351 53.9641 6.1252L56.4314 6.47813C55.7634 9.53087 54.8523 12.3167 53.675 14.8373C53.6521 14.8768 53.6345 14.9144 53.631 14.9538ZM63.1371 10.8799L60.335 12.1196C60.2874 11.0572 60.0742 9.69928 59.7094 8.04391L56.1741 28.3938H52.6634L57.554 0.188109H61.0716L60.0865 5.86005L61.8013 5.17928C62.5591 7.40255 63.0032 9.30335 63.1371 10.8799ZM78.6071 17.0212H71.5753C72.4776 21.0808 74.5555 23.777 77.8088 25.1135C76.8412 25.8838 75.8948 26.8978 74.959 28.1573C74.8762 28.2952 74.7934 28.4117 74.7211 28.5102C71.5647 26.8369 69.4922 23.8738 68.5088 19.6225C66.4909 23.4223 63.4561 26.4034 59.4009 28.5711C59.0908 27.8008 58.451 26.9068 57.4835 25.8838C57.4324 25.8444 57.4007 25.814 57.383 25.7943C61.5686 23.8666 64.4906 20.9428 66.1402 17.023H60.2099L60.8091 13.5976H67.1958C67.3756 12.9294 67.5642 12.005 67.7668 10.8226L68.2444 8.07616H63.1301L63.7081 4.73856H68.8225L69.6103 0.189901H73.1826L72.3913 4.73856H78.8768L77.3347 13.5976H79.1975L78.6071 17.0212ZM71.8185 8.07258L71.3339 10.8494C71.1788 11.7524 70.9902 12.6696 70.7734 13.594H73.8822L74.8427 8.07079L71.8185 8.07258Z" fill="#262626"/>
<path d="M87.4912 21.8673L90.5753 23.1464C88.5345 24.8931 86.0178 26.4303 83.0165 27.7578C82.7592 27.876 82.5107 27.9871 82.2552 28.0856C81.6771 27.2544 80.9581 26.45 80.0998 25.6742C80.0628 25.6563 80.0382 25.6348 80.0241 25.6169C83.1452 24.5832 85.6002 23.365 87.3872 21.9568C87.4365 21.9156 87.4665 21.887 87.4912 21.8673ZM108.708 20.529L105.696 22.5212C105.383 22.0661 105.039 21.6093 104.649 21.1524C102.938 21.2116 100.136 21.2796 96.2413 21.3603L95.0235 28.3812H91.5428L92.7448 21.448C91.0406 21.4875 88.6314 21.5376 85.5191 21.5967C83.6598 21.6164 82.0314 21.6362 81.2436 21.6559L81.7459 18.7697C82.8791 18.7697 85.1261 18.75 88.2719 18.7106C88.4023 18.63 88.605 18.5315 88.8817 18.4114C89.0738 18.3129 89.213 18.243 89.2976 18.2036C88.0586 17.1323 86.5818 16.0807 84.867 15.0505L87.5282 13.0279C87.9934 13.2859 88.4605 13.5618 88.9398 13.861C89.5108 13.4848 90.3515 12.8506 91.4635 11.9566H82.9478L83.4254 9.19048H94.8402L95.0429 8.02958H86.8197L87.2673 5.44263H95.4905L95.6897 4.28352H85.9456L86.4003 1.66611H96.1443L96.4369 0H99.9757L99.6902 1.66611H109.989L109.535 4.28352H99.232L99.0329 5.44263H107.755L107.304 8.02958H98.5852L98.3825 9.19048H110L109.522 11.9566H99.9228L102.378 13.5027C99.551 15.3676 96.6748 17.0839 93.7282 18.6497L102.006 18.501C100.756 17.4888 100.085 16.9442 99.9792 16.8653L102.785 15.0505C105.201 16.7561 107.053 18.4204 108.354 20.0489C108.477 20.2298 108.594 20.3893 108.708 20.529ZM99.2761 11.9602H96.088C94.2815 13.2698 92.6143 14.3787 91.0899 15.2924C91.7508 15.7492 92.239 16.1147 92.5668 16.3924C95.0464 14.9448 97.2811 13.4668 99.2761 11.9602ZM97.7481 23.6229L100.705 21.7777C103.59 23.3632 105.649 24.7229 106.877 25.8516L103.717 27.8742C102.431 26.6255 100.568 25.2765 98.127 23.8272C97.9825 23.7501 97.8591 23.6821 97.7481 23.6229Z" fill="#262626"/>
<path d="M54.2813 32.2867L52.3304 42.8495H50.0463L52.0026 32.2867H54.2813ZM59.2247 32.2867L58.9075 33.9922H53.3455L53.6592 32.2867H59.2247ZM57.8571 36.8013L57.5434 38.4997H52.5084L52.8221 36.8013H57.8571Z" fill="#6157E6"/>
<path d="M63.8121 38.0697L63.6094 39.2521H62.3881C62.0956 39.2521 61.84 39.2844 61.6145 39.3471C61.3906 39.4116 61.2021 39.4976 61.0434 39.6122C60.8848 39.7269 60.7615 39.8577 60.6681 40.0082C60.5782 40.1569 60.5165 40.3235 60.483 40.5008C60.4513 40.68 60.4654 40.8394 60.5236 40.9845C60.5852 41.1279 60.6892 41.2389 60.8373 41.3178C60.9818 41.3984 61.1651 41.4378 61.3853 41.4378C61.7167 41.4378 62.011 41.3769 62.2806 41.2497C62.545 41.1243 62.7617 40.9702 62.9309 40.7839C63.1001 40.5994 63.1988 40.4256 63.2376 40.2626L63.65 41.1458C63.5337 41.3446 63.3856 41.5525 63.2059 41.7639C63.0261 41.9735 62.8129 42.1741 62.5697 42.3622C62.3212 42.5485 62.0357 42.7008 61.7167 42.8173C61.3924 42.9355 61.0276 43 60.6152 43C60.0953 43 59.6406 42.8979 59.2564 42.6954C58.8705 42.4966 58.585 42.2189 58.407 41.8624C58.2272 41.5059 58.1796 41.1046 58.2625 40.6459C58.3382 40.2357 58.4898 39.8702 58.7101 39.5531C58.9304 39.2324 59.2194 38.9637 59.5772 38.7434C59.9349 38.523 60.3614 38.3564 60.8619 38.2435C61.3571 38.1307 61.9193 38.0715 62.5485 38.0715L63.8121 38.0697ZM62.9697 41.0777L63.6165 37.5842C63.6605 37.3316 63.657 37.1149 63.6059 36.9339C63.5513 36.7512 63.4438 36.6097 63.2852 36.5093C63.123 36.4072 62.9027 36.3571 62.6172 36.3571C62.3723 36.3571 62.152 36.3965 61.9634 36.4771C61.7713 36.5559 61.6127 36.6706 61.4911 36.8175C61.3677 36.9662 61.2849 37.1382 61.2461 37.337H59.0573C59.119 37.002 59.2599 36.6867 59.4767 36.3857C59.6935 36.0865 59.979 35.8214 60.3297 35.5921C60.6804 35.3628 61.084 35.1818 61.5387 35.051C61.9898 34.9203 62.4815 34.8558 63.012 34.8558C63.6517 34.8558 64.2034 34.9579 64.6616 35.1603C65.1233 35.3628 65.4564 35.6673 65.6661 36.074C65.8794 36.4807 65.9269 36.9877 65.8177 37.5968L65.1938 40.9559C65.1145 41.3858 65.0775 41.737 65.0828 42.0093C65.0863 42.2816 65.1233 42.5199 65.1938 42.7259L65.1727 42.8477H62.9556C62.8904 42.6345 62.8587 42.3676 62.8657 42.0469C62.8728 41.7262 62.908 41.4038 62.9697 41.0777Z" fill="#6157E6"/>
<path d="M71.3815 40.6818C71.4097 40.5331 71.392 40.3969 71.3198 40.2751C71.2546 40.1551 71.1065 40.0422 70.8792 39.9383C70.6518 39.8344 70.3187 39.7394 69.8711 39.6516C69.4711 39.5657 69.1062 39.4564 68.7732 39.322C68.4401 39.1876 68.1599 39.0282 67.9325 38.8383C67.7087 38.652 67.543 38.4263 67.4479 38.1683C67.3439 37.9085 67.328 37.6111 67.3897 37.2779C67.4514 36.95 67.5818 36.6401 67.7898 36.3481C67.9889 36.0579 68.255 35.7999 68.574 35.576C68.9018 35.352 69.2754 35.1747 69.7107 35.0457C70.1372 34.9185 70.6095 34.854 71.1224 34.854C71.8379 34.854 72.4336 34.9633 72.9094 35.1818C73.3853 35.3986 73.7254 35.6978 73.9281 36.0776C74.1343 36.4556 74.1924 36.8891 74.1043 37.3728H71.9154C71.9525 37.1704 71.9436 36.9877 71.8837 36.8246C71.8238 36.6616 71.711 36.5344 71.5436 36.4395C71.3762 36.3445 71.1435 36.2979 70.851 36.2979C70.6095 36.2979 70.3892 36.3373 70.1971 36.418C70.0086 36.4968 69.85 36.6043 69.7319 36.7369C69.612 36.8694 69.5398 37.0163 69.5081 37.1758C69.4834 37.2958 69.494 37.4051 69.5292 37.5C69.5645 37.5932 69.6402 37.681 69.746 37.7562C69.8535 37.8333 69.998 37.9049 70.1795 37.9712C70.3628 38.0375 70.5954 38.0966 70.8721 38.1486C71.4467 38.2632 71.9489 38.4137 72.3789 38.6036C72.8125 38.7899 73.1332 39.0407 73.35 39.3561C73.5633 39.6749 73.6249 40.0888 73.5333 40.6012C73.4681 40.9505 73.3271 41.2694 73.1103 41.556C72.8936 41.8498 72.6186 42.1007 72.2732 42.3138C71.926 42.5306 71.533 42.699 71.0889 42.8137C70.6413 42.9319 70.1566 42.9964 69.6261 42.9964C68.8648 42.9964 68.2392 42.8638 67.7598 42.6005C67.2787 42.3407 66.9368 42.0093 66.7412 41.6044C66.5455 41.2013 66.4839 40.7857 66.5614 40.3611H68.641C68.6004 40.6459 68.6304 40.8753 68.7485 41.049C68.856 41.2246 69.0164 41.35 69.2296 41.427C69.4429 41.5041 69.6772 41.5417 69.9416 41.5417C70.2271 41.5417 70.4686 41.5059 70.6712 41.4288C70.8704 41.3554 71.0325 41.2533 71.1559 41.1261C71.2757 41.0007 71.355 40.8502 71.3815 40.6818Z" fill="#6157E6"/>
<path d="M80.0152 35.0009L79.7438 36.4807H74.952L75.2234 35.0009H80.0152ZM76.7725 33.0642H78.9613L77.5885 40.4865C77.5479 40.714 77.5479 40.8896 77.585 41.0078C77.6255 41.1279 77.7048 41.2103 77.8264 41.2604C77.9427 41.3034 78.0978 41.3285 78.2952 41.3285C78.4291 41.3285 78.5525 41.3196 78.667 41.3088C78.7781 41.2963 78.8732 41.2819 78.9525 41.2712L78.6776 42.8065C78.4749 42.8656 78.2652 42.9122 78.0414 42.9463C77.8176 42.9785 77.5726 42.9982 77.3118 42.9982C76.8271 42.9982 76.42 42.9176 76.094 42.7671C75.768 42.6166 75.5336 42.3712 75.4049 42.0326C75.2745 41.694 75.2604 41.2479 75.3609 40.6961L76.7725 33.0642Z" fill="#6157E6"/>
<path d="M79.9588 39.0067L79.987 38.8526C80.0946 38.2776 80.2796 37.7473 80.5404 37.26C80.8013 36.7745 81.1326 36.3535 81.5291 35.9934C81.9256 35.6351 82.3786 35.3574 82.8985 35.1567C83.4184 34.9543 83.9858 34.8558 84.6132 34.8558C85.2336 34.8558 85.7693 34.9561 86.224 35.1567C86.6717 35.3574 87.0294 35.6369 87.2938 35.9934C87.5617 36.3517 87.7344 36.7727 87.8172 37.26C87.9 37.7473 87.8895 38.2758 87.782 38.8526L87.7502 39.0067C87.6463 39.5764 87.4612 40.1049 87.1986 40.5922C86.9378 41.0777 86.6065 41.5023 86.2099 41.8606C85.8064 42.2207 85.3499 42.5002 84.8335 42.6972C84.3172 42.8961 83.7462 42.9982 83.1188 42.9982C82.4949 42.9982 81.9627 42.8961 81.5115 42.6972C81.0674 42.502 80.7096 42.2207 80.4417 41.8606C80.1809 41.5005 80.0082 41.0759 79.9218 40.5922C79.8425 40.1049 79.8566 39.5764 79.9588 39.0067ZM82.1759 38.8526L82.1512 39.0067C82.0895 39.3363 82.0613 39.6409 82.0719 39.9275C82.079 40.2106 82.1301 40.4632 82.2235 40.6782C82.3204 40.8932 82.4649 41.0616 82.6605 41.1816C82.8562 41.3034 83.1082 41.3661 83.4254 41.3661C83.7285 41.3661 83.9999 41.3052 84.2414 41.1816C84.4828 41.0616 84.689 40.8932 84.8617 40.6782C85.0344 40.4632 85.1754 40.2106 85.2917 39.9275C85.4081 39.6409 85.4944 39.3363 85.5561 39.0067L85.5843 38.8526C85.6424 38.5337 85.6671 38.2328 85.6566 37.9497C85.646 37.6667 85.5913 37.4158 85.4979 37.1955C85.4045 36.9751 85.26 36.8031 85.0679 36.6777C84.8723 36.5505 84.6203 36.4878 84.3101 36.4878C83.9999 36.4878 83.725 36.5505 83.4871 36.6777C83.2492 36.8031 83.043 36.9751 82.8667 37.1955C82.6905 37.4176 82.546 37.6684 82.4367 37.9497C82.3204 38.2328 82.2376 38.5337 82.1759 38.8526Z" fill="#6157E6"/>
<path d="M92.0662 41.3643C92.3306 41.3643 92.5791 41.3142 92.8064 41.2139C93.0338 41.1135 93.2224 40.9756 93.3739 40.7946C93.529 40.6119 93.6295 40.3987 93.6806 40.1551H95.7425C95.635 40.7051 95.3883 41.1941 95.0059 41.6205C94.6234 42.0505 94.1529 42.3855 93.5942 42.6309C93.0408 42.8728 92.4452 42.9982 91.8072 42.9982C91.1692 42.9982 90.6335 42.8925 90.1964 42.6901C89.7593 42.4876 89.4192 42.2064 89.1672 41.8463C88.9187 41.4862 88.7618 41.0634 88.6949 40.5832C88.6261 40.0995 88.6437 39.5854 88.7424 39.0336L88.783 38.824C88.887 38.2668 89.0614 37.7473 89.3064 37.2671C89.5549 36.7852 89.8633 36.3642 90.2457 36.0041C90.6282 35.6422 91.0723 35.361 91.5816 35.1585C92.0909 34.9543 92.6619 34.854 93.2964 34.854C93.9678 34.854 94.5388 34.9776 95.0041 35.2248C95.4694 35.472 95.8024 35.8232 96.0122 36.28C96.2184 36.7369 96.2642 37.2779 96.1567 37.9013H94.0947C94.1388 37.6398 94.1264 37.4033 94.0542 37.1919C93.9855 36.9787 93.8621 36.8085 93.6788 36.6795C93.4955 36.5505 93.2558 36.4878 92.9562 36.4878C92.6355 36.4878 92.3641 36.5523 92.1367 36.6795C91.9094 36.8067 91.7243 36.9823 91.5693 37.2026C91.4177 37.423 91.2943 37.672 91.2009 37.9497C91.1075 38.2274 91.0317 38.5194 90.9736 38.824L90.9366 39.0336C90.882 39.3381 90.8467 39.6319 90.8326 39.9114C90.822 40.1909 90.8573 40.4399 90.926 40.6603C91.0018 40.8753 91.1251 41.0472 91.3084 41.1726C91.4864 41.3016 91.7384 41.3643 92.0662 41.3643Z" fill="#6157E6"/>
<path d="M100.753 31.7009L98.6945 42.8513H96.5021L98.5641 31.7009H100.753ZM105.328 35.0009L101.038 38.8885L98.7808 40.7373L98.2574 39.2289L100.12 37.3854L102.702 34.9991H105.328V35.0009ZM101.604 42.8513L99.8453 39.2217L101.59 37.9605L104.133 42.8495H101.604V42.8513Z" fill="#6157E6"/>
<path d="M41.5623 32.8331C40.6371 38.1736 35.5739 42.5467 30.3167 42.5467H8.01938C2.76403 42.5467 -0.77831 38.1736 0.146928 32.8331L4.07875 10.1651C5.00575 4.82097 10.0655 0.447879 15.3208 0.447879H37.6217C42.8788 0.447879 46.4194 4.82097 45.4942 10.1651L41.5623 32.8331Z" fill="#262626"/>
<path d="M18.7786 11.7488H27.9287C28.29 11.7488 28.6443 11.4442 28.7077 11.0734L29.1289 8.64228C29.1941 8.26964 28.9456 7.96688 28.5808 7.96688H20.0986C19.7338 7.96688 19.1487 7.96688 18.7962 7.96688C18.4437 7.96688 17.8604 7.96688 17.4938 7.96688H15.5852C15.2186 7.96688 14.8679 8.26964 14.8045 8.64228L10.3457 34.3577C10.2805 34.7304 10.5255 35.0331 10.892 35.0331H14.0801C14.4467 35.0331 14.7957 34.7304 14.8609 34.3577L18.7786 11.7488Z" fill="white"/>
<path d="M32.8387 31.9392C32.9004 31.5683 32.7929 31.2924 32.5972 31.3247C32.5972 31.3247 32.5972 31.3247 32.3699 31.3498C32.1425 31.3784 31.8905 31.391 31.6068 31.391C31.2103 31.391 30.8966 31.3408 30.6534 31.2405C30.4101 31.1366 30.248 30.9592 30.1652 30.6923C30.0788 30.4307 30.1017 30.2283 30.1017 30.2283C30.137 29.8592 30.2198 29.2501 30.285 28.8775L31.5927 21.3334H34.0124C34.379 21.3334 34.7297 21.0288 34.7931 20.658L35.2143 18.2287C35.2795 17.8578 35.0328 17.5533 34.6662 17.5533H32.2483L32.8563 14.0419C32.9197 13.6693 32.673 13.3665 32.3082 13.3665H29.1536C28.787 13.3665 28.4345 13.6693 28.3711 14.0419L27.7631 17.5533H20.652C20.2872 17.5533 19.9364 17.8578 19.873 18.2287L19.4518 20.658C19.3884 21.0288 19.6333 21.3334 19.9981 21.3334H27.1128L25.724 29.3379C25.6588 29.7105 25.583 30.3143 25.5513 30.6851C25.5513 30.6851 25.428 32.1864 25.6941 32.9245C25.9584 33.6626 26.429 34.1983 27.1022 34.5315C27.7789 34.8647 28.6073 35.0277 29.5942 35.0277C30.1335 35.0277 30.6304 34.9901 31.0922 34.9167C31.5539 34.8414 31.7178 34.7966 31.7178 34.7966C32.0844 34.6981 32.4369 34.3111 32.5021 33.9403L32.8387 31.9392Z" fill="white"/>
</svg>
