<svg width="25" height="24" viewBox="0 0 25 24" fill="none" xmlns="http://www.w3.org/2000/svg">
<path fill-rule="evenodd" clip-rule="evenodd" d="M14.25 7C14.9404 7 15.5 7.55964 15.5 8.25V19.75C15.5 20.4404 14.9404 21 14.25 21H5.75C5.05964 21 4.5 20.4404 4.5 19.75V8.25C4.5 7.55964 5.05965 7 5.75 7H14.25ZM6.5 19H13.5V9H6.5V19Z" fill="#262626"/>
<path d="M19.25 3C19.9404 3 20.5 3.55964 20.5 4.25V15.75C20.5 16.4404 19.9404 17 19.25 17H16.75C16.6119 17 16.5 16.8881 16.5 16.75V15.25C16.5 15.1119 16.6119 15 16.75 15H18.5V5H11.5V5.75C11.5 5.88807 11.3881 6 11.25 6H9.75C9.61193 6 9.5 5.88807 9.5 5.75V4.25C9.5 3.55964 10.0596 3 10.75 3H19.25Z" fill="#262626"/>
</svg>
