<svg width="24" height="24" viewBox="0 0 24 24" fill="none" xmlns="http://www.w3.org/2000/svg">
<path d="M7.50003 18.9997C8.32835 18.9997 8.99986 19.6714 9.00003 20.4997C9.00003 21.3281 8.32845 21.9997 7.50003 21.9997C6.67161 21.9997 6.00003 21.3281 6.00003 20.4997C6.00021 19.6714 6.67172 18.9997 7.50003 18.9997Z" fill="#262626"/>
<path d="M18.5 18.9997C19.3283 18.9997 19.9999 19.6714 20 20.4997C20 21.3281 19.3285 21.9997 18.5 21.9997C17.6716 21.9997 17 21.3281 17 20.4997C17.0002 19.6714 17.6717 18.9997 18.5 18.9997Z" fill="#262626"/>
<path fill-rule="evenodd" clip-rule="evenodd" d="M3.09476 2.00459L3.19632 2.01924L5.51664 2.4831C6.01681 2.58314 6.40303 2.97623 6.49906 3.47041L6.51371 3.57099L6.89554 6.99971H20.6914C21.4853 6.99971 22.0784 7.73073 21.9151 8.50752L20.0205 17.5075C19.8986 18.0857 19.3879 18.4997 18.7969 18.4997H7.22464C6.58531 18.4993 6.04946 18.0164 5.98246 17.3806L5.00589 8.10908L4.58597 4.33564L2.80374 3.98017L2.70511 3.95478C2.22076 3.80568 1.91812 3.31106 2.01957 2.80342C2.12132 2.29615 2.59059 1.95613 3.09476 2.00459ZM7.90042 16.4997H18.1885L19.7676 8.99971H7.11039L7.90042 16.4997Z" fill="#262626"/>
<circle cx="19" cy="8" r="5" fill="#DA1E28"/>
</svg>
