<svg width="25" height="24" viewBox="0 0 25 24" fill="none" xmlns="http://www.w3.org/2000/svg">
<path fill-rule="evenodd" clip-rule="evenodd" d="M11 2C15.6944 2 19.5 5.80558 19.5 10.5C19.5 12.4868 18.816 14.3125 17.6738 15.7598L22.207 20.293L22.2754 20.3691C22.5957 20.7619 22.5731 21.3409 22.207 21.707C21.8409 22.0731 21.2619 22.0957 20.8691 21.7754L20.793 21.707L16.2598 17.1738C14.8125 18.316 12.9868 19 11 19C6.30558 19 2.5 15.1944 2.5 10.5C2.5 5.80558 6.30558 2 11 2ZM11 4C7.41015 4 4.5 6.91015 4.5 10.5C4.5 14.0899 7.41015 17 11 17C14.5899 17 17.5 14.0899 17.5 10.5C17.5 6.91015 14.5899 4 11 4Z" fill="#262626"/>
</svg>
