<svg width="20" height="20" viewBox="0 0 20 20" fill="none" xmlns="http://www.w3.org/2000/svg">
<path d="M18.4418 9.01675L15.1752 12.3667L15.9502 17.0834C16.0918 17.9667 15.1585 18.6251 14.3752 18.1917L10.4252 16.0001H10.4168V14.0501H10.4252L14.0418 16.0501L13.3502 11.7834L16.3418 8.71675L12.6668 8.15841L12.2168 8.08341L10.4168 4.24175V1.66675C10.7585 1.66675 11.1002 1.82508 11.3085 2.13341L11.3835 2.27508L13.3752 6.53341L17.8418 7.20841C18.7002 7.34175 19.0502 8.39175 18.4418 9.01675Z" fill="#D9D9D9"/>
<path d="M8.16684 8.15841L4.49184 8.71675L7.48351 11.7834L6.79184 16.0501L10.0085 14.2667L10.4168 14.0501V16.0084L6.45851 18.1917C5.67518 18.6251 4.74184 17.9667 4.88351 17.0834L5.65018 12.3667L2.39184 9.01675C1.78351 8.39175 2.13351 7.34175 2.99184 7.20841L7.45018 6.53341L9.45018 2.27508L9.52518 2.13341C9.74184 1.82508 10.0752 1.66675 10.4168 1.66675V4.24175L8.61684 8.08341L8.16684 8.15841Z" fill="#6157E6"/>
<path d="M10.4168 4.24175V14.0501L10.0085 14.2667L6.79184 16.0501L7.48351 11.7834L4.49184 8.71675L8.16684 8.15841L8.61684 8.08341L10.4168 4.24175Z" fill="#6157E6"/>
</svg>
