<svg width="25" height="24" viewBox="0 0 25 24" fill="none" xmlns="http://www.w3.org/2000/svg">
<path d="M20.5 10.1426C20.5 10.1179 20.4946 10.094 20.4844 10.0732C20.4742 10.0526 20.4599 10.0363 20.4443 10.0244L12.5693 4.02441C12.5586 4.0162 12.5468 4.0098 12.5352 4.00586L12.5 4C12.4769 4 12.4523 4.00792 12.4307 4.02441L4.55566 10.0244C4.54014 10.0363 4.52577 10.0526 4.51562 10.0732C4.50541 10.094 4.50004 10.1179 4.5 10.1426V19.8574C4.50007 19.9002 4.51684 19.9383 4.54199 19.9639C4.56669 19.989 4.59697 20 4.625 20H9.125C9.15303 20 9.18331 19.989 9.20801 19.9639C9.23316 19.9383 9.24993 19.9002 9.25 19.8574V16.4287C9.25 15.8654 9.47045 15.322 9.86719 14.9189C10.2644 14.5155 10.8064 14.2861 11.375 14.2861H13.625C14.1936 14.2861 14.7356 14.5155 15.1328 14.9189C15.5295 15.322 15.75 15.8654 15.75 16.4287V19.8574C15.7501 19.9002 15.7668 19.9383 15.792 19.9639C15.8167 19.989 15.847 20 15.875 20H20.375C20.403 20 20.4333 19.989 20.458 19.9639C20.4832 19.9383 20.4999 19.9002 20.5 19.8574V10.1426ZM22.5 19.8574C22.4999 20.4206 22.2795 20.9642 21.8828 21.3672C21.4856 21.7705 20.9435 22 20.375 22H15.875C15.3065 22 14.7644 21.7705 14.3672 21.3672C13.9705 20.9642 13.7501 20.4206 13.75 19.8574V16.4287C13.75 16.3859 13.7331 16.3479 13.708 16.3223C13.6833 16.2972 13.653 16.2861 13.625 16.2861H11.375C11.347 16.2861 11.3167 16.2972 11.292 16.3223C11.2669 16.3479 11.25 16.3859 11.25 16.4287V19.8574C11.2499 20.4206 11.0295 20.9642 10.6328 21.3672C10.2356 21.7705 9.69354 22 9.125 22H4.625C4.05646 22 3.51441 21.7705 3.11719 21.3672C2.72052 20.9642 2.50007 20.4206 2.5 19.8574V10.1426C2.50004 9.81268 2.57583 9.48682 2.72168 9.19043C2.86759 8.89398 3.08017 8.6345 3.34375 8.43359L11.2188 2.43359C11.5866 2.15335 12.0363 2 12.5 2C12.9637 2 13.4134 2.15335 13.7812 2.43359L21.6562 8.43359C21.9198 8.63451 22.1324 8.89398 22.2783 9.19043C22.4242 9.48682 22.5 9.81268 22.5 10.1426V19.8574Z" fill="#262626"/>
</svg>
