<svg width="24" height="24" viewBox="0 0 24 24" fill="none" xmlns="http://www.w3.org/2000/svg">
<path d="M11.545 18.11L6.22275 21.0553C6.03259 21.1606 5.80494 21 5.83992 20.7854L6.85991 14.5268L2.52268 10.083C2.37454 9.93127 2.46008 9.67538 2.66964 9.64341L8.64275 8.73224L11.3028 3.05897C11.3965 2.85918 11.6804 2.85918 11.7741 3.05897L14.4342 8.73224L20.4073 9.64341C20.6168 9.67538 20.7024 9.93127 20.5542 10.083L16.217 14.5268L17.2369 20.7847C17.2719 20.9995 17.044 21.16 16.8538 21.0546L11.545 18.11Z" fill="black"/>
<path d="M10.5682 2.515C11.024 1.82833 12.0529 1.82833 12.5087 2.515L12.5975 2.673L15.0511 7.90667L20.5443 8.74462C21.4867 8.88838 21.8689 10.0375 21.2047 10.7179L17.1878 14.8331L18.1341 20.6384C18.2909 21.6005 17.269 22.324 16.4129 21.8492L11.5447 19.1489L6.66314 21.851C5.8071 22.3247 4.78615 21.6008 4.94276 20.6393L5.88817 14.8331L1.87217 10.7179C1.20805 10.0375 1.59023 8.88838 2.53263 8.74462L8.02489 7.90667L10.4794 2.673L10.5682 2.515ZM9.2597 9.55772L4.05416 10.3513L7.83048 14.2206L6.95076 19.6132L11.5456 17.0709L16.1244 19.6105L15.2464 14.2206L19.0219 10.3513L13.8172 9.55772L11.5385 4.69777L9.2597 9.55772Z" fill="black"/>
</svg>
