<svg width="24" height="24" viewBox="0 0 24 24" fill="none" xmlns="http://www.w3.org/2000/svg">
<path fill-rule="evenodd" clip-rule="evenodd" d="M12 2C17.5228 2 22 6.47715 22 12C22 15.7646 19.9184 19.041 16.8447 20.7471C16.7254 20.8533 16.5802 20.9323 16.416 20.9717C15.084 21.6286 13.5857 22 12 22C6.47715 22 2 17.5228 2 12C2 6.47715 6.47715 2 12 2ZM13.4902 13.8574C13.2765 13.9264 13.0605 14.0004 12.8428 14.082C10.5205 14.9526 8.60221 16.429 7.23633 18.4268C8.56719 19.4148 10.2151 20 12 20C13.0839 20 14.1169 19.7832 15.0596 19.3926C14.7039 17.5002 14.1777 15.6483 13.4902 13.8574ZM19.6904 13.7803C18.2413 13.32 16.8661 13.2048 15.4551 13.3994C16.0554 15.0022 16.534 16.6504 16.8867 18.3311C18.321 17.2224 19.3668 15.6388 19.79 13.8145L19.6904 13.7803ZM12.2324 11.0039C9.77912 11.7716 7.37399 12.0124 4.69238 12.0137L4 12.0059C4.00136 13.9067 4.66683 15.6515 5.77539 17.0234C7.36722 14.8131 9.55248 13.1793 12.1406 12.209C12.3318 12.1373 12.5222 12.0693 12.7119 12.0059C12.5579 11.6693 12.3981 11.3352 12.2324 11.0039ZM18.6133 7.49902C17.4424 8.6148 15.908 9.56496 14.1221 10.3154C14.3143 10.7064 14.4998 11.1004 14.6768 11.498C16.4378 11.1796 18.1757 11.2525 19.9941 11.7822C19.9517 10.196 19.4496 8.72548 18.6133 7.49902ZM8.2793 4.91797C6.30413 5.95781 4.81631 7.79812 4.25 10.0088C6.85445 10.0323 9.06408 9.84432 11.2617 9.20801C10.4208 7.76283 9.46565 6.3768 8.40039 5.06445L8.2793 4.91797ZM12 4C11.4022 4 10.8201 4.06708 10.2598 4.19141C11.3478 5.5714 12.3262 7.02372 13.1846 8.53809C14.9058 7.83442 16.2932 6.96056 17.2861 5.99805C15.8764 4.75546 14.0269 4 12 4Z" fill="#262626"/>
</svg>
