<svg width="25" height="24" viewBox="0 0 25 24" fill="none" xmlns="http://www.w3.org/2000/svg">
<path d="M20.5 15C20.7652 15 21.0196 15.1054 21.2071 15.2929C21.3946 15.4804 21.5 15.7348 21.5 16V20C21.5 20.5304 21.2893 21.0391 20.9142 21.4142C20.5391 21.7893 20.0304 22 19.5 22H5.5C4.96957 22 4.46086 21.7893 4.08579 21.4142C3.71071 21.0391 3.5 20.5304 3.5 20V16C3.5 15.7348 3.60536 15.4804 3.79289 15.2929C3.98043 15.1054 4.23478 15 4.5 15C4.76522 15 5.01957 15.1054 5.20711 15.2929C5.39464 15.4804 5.5 15.7348 5.5 16V20H19.5V16C19.5 15.7348 19.6054 15.4804 19.7929 15.2929C19.9804 15.1054 20.2348 15 20.5 15ZM12.5 2C12.7652 2 13.0196 2.10536 13.2071 2.29289C13.3946 2.48043 13.5 2.73478 13.5 3V13.243L16.036 10.707C16.1282 10.6115 16.2386 10.5353 16.3606 10.4829C16.4826 10.4305 16.6138 10.4029 16.7466 10.4017C16.8794 10.4006 17.0111 10.4259 17.134 10.4762C17.2568 10.5265 17.3685 10.6007 17.4624 10.6946C17.5563 10.7885 17.6305 10.9001 17.6808 11.023C17.7311 11.1459 17.7564 11.2776 17.7553 11.4104C17.7541 11.5432 17.7265 11.6744 17.6741 11.7964C17.6217 11.9184 17.5455 12.0288 17.45 12.121L13.384 16.187C13.2679 16.3031 13.1301 16.3952 12.9784 16.4581C12.8268 16.5209 12.6642 16.5532 12.5 16.5532C12.3358 16.5532 12.1732 16.5209 12.0216 16.4581C11.8699 16.3952 11.7321 16.3031 11.616 16.187L7.55 12.121C7.45449 12.0288 7.37831 11.9184 7.3259 11.7964C7.27349 11.6744 7.2459 11.5432 7.24475 11.4104C7.2436 11.2776 7.2689 11.1459 7.31918 11.023C7.36946 10.9001 7.44371 10.7885 7.5376 10.6946C7.6315 10.6007 7.74315 10.5265 7.86605 10.4762C7.98894 10.4259 8.12062 10.4006 8.2534 10.4017C8.38618 10.4029 8.5174 10.4305 8.6394 10.4829C8.76141 10.5353 8.87175 10.6115 8.964 10.707L11.5 13.243V3C11.5 2.73478 11.6054 2.48043 11.7929 2.29289C11.9804 2.10536 12.2348 2 12.5 2Z" fill="#262626"/>
</svg>
