<svg width="20" height="20" viewBox="0 0 20 20" fill="none" xmlns="http://www.w3.org/2000/svg">
<path d="M9.62006 15.0918L5.18483 17.5462C5.02637 17.6339 4.83666 17.5001 4.86581 17.3212L5.7158 12.1058L2.10144 8.40262C1.97799 8.27614 2.04928 8.0629 2.22391 8.03626L7.2015 7.27695L9.41823 2.54922C9.49629 2.38273 9.73287 2.38273 9.81094 2.54922L12.0277 7.27695L17.0053 8.03626C17.1799 8.0629 17.2512 8.27614 17.1277 8.40262L13.5134 12.1058L14.3633 17.3207C14.3924 17.4997 14.2025 17.6335 14.0441 17.5456L9.62006 15.0918Z" fill="#6157E6"/>
<path d="M8.80603 2.09592C9.18589 1.52369 10.0433 1.52369 10.4231 2.09592L10.4971 2.22759L12.5418 6.58897L17.1194 7.28727C17.9048 7.40707 18.2232 8.36464 17.6698 8.93166L14.3224 12.361L15.111 17.1988C15.2417 18.0005 14.39 18.6034 13.6766 18.2077L9.61976 15.9575L5.55183 18.2092C4.83846 18.604 3.98767 18.0008 4.11817 17.1995L4.90602 12.361L1.55935 8.93166C1.00591 8.36464 1.3244 7.40707 2.10973 7.28727L6.68662 6.58897L8.73205 2.22759L8.80603 2.09592ZM7.71562 7.96485L3.37768 8.62616L6.52461 11.8506L5.79151 16.3444L9.6205 14.2258L13.4362 16.3422L12.7046 11.8506L15.8508 8.62616L11.5135 7.96485L9.61458 3.91489L7.71562 7.96485Z" fill="#6157E6"/>
</svg>
