<svg width="25" height="24" viewBox="0 0 25 24" fill="none" xmlns="http://www.w3.org/2000/svg">
<path fill-rule="evenodd" clip-rule="evenodd" d="M12.4707 15C13.1125 15.0001 13.6706 15.1333 14.1445 15.4004C14.6178 15.665 14.9859 16.0381 15.248 16.5195C15.5126 16.9998 15.6445 17.5616 15.6445 18.2041C15.6445 18.6916 15.5687 19.1336 15.417 19.5293C15.2652 19.9245 15.0499 20.2646 14.7715 20.5488C14.4931 20.8306 14.1593 21.0484 13.7705 21.2021C13.3813 21.3558 12.9481 21.4326 12.4707 21.4326C11.8389 21.4326 11.2844 21.2983 10.8086 21.0293C10.333 20.761 9.96277 20.3851 9.69824 19.9014C9.43607 19.4174 9.30471 18.8546 9.30469 18.2139C9.30469 17.7239 9.37885 17.2834 9.52637 16.8926C9.67457 16.4986 9.88762 16.1608 10.166 15.8809C10.4462 15.6003 10.7827 15.3836 11.1738 15.2305C11.5643 15.0768 11.9969 15 12.4707 15ZM12.4707 16.1689C12.1173 16.1689 11.813 16.2489 11.5586 16.4082C11.3037 16.5675 11.109 16.8009 10.9746 17.1084C10.8427 17.4135 10.7764 17.782 10.7764 18.2139C10.7764 18.8544 10.9245 19.3565 11.2207 19.7197C11.5183 20.0824 11.9355 20.2637 12.4707 20.2637C12.828 20.2636 13.1318 20.1834 13.3818 20.0225C13.635 19.8589 13.8296 19.6223 13.9658 19.3135C14.102 19.0041 14.1699 18.6377 14.1699 18.2139C14.1699 17.5645 14.0209 17.0616 13.7227 16.7051C13.4263 16.348 13.0093 16.169 12.4707 16.1689Z" fill="#262626"/>
<path d="M8.71973 15.0977C8.90733 15.0977 9.05269 15.1463 9.15527 15.2441C9.25961 15.3421 9.31244 15.4826 9.3125 15.665C9.3125 15.8415 9.25967 15.9802 9.15527 16.0801C9.05269 16.1797 8.90734 16.2295 8.71973 16.2295H7.10938V20.707C7.10935 20.9318 7.04975 21.1061 6.93164 21.2305C6.81464 21.3536 6.64116 21.415 6.41016 21.415C6.18005 21.415 6.00415 21.3538 5.88184 21.2314C5.76127 21.1065 5.70023 20.9322 5.7002 20.708V16.2295H4.08984C3.90225 16.2295 3.75688 16.1797 3.6543 16.0801C3.5517 15.9802 3.5 15.8415 3.5 15.665C3.50006 15.4826 3.55175 15.3421 3.6543 15.2441C3.75688 15.1463 3.90226 15.0977 4.08984 15.0977H8.71973Z" fill="#262626"/>
<path fill-rule="evenodd" clip-rule="evenodd" d="M19.2607 15.0986C19.9777 15.0986 20.53 15.2739 20.917 15.625C21.3057 15.976 21.5 16.4637 21.5 17.0879C21.5 17.7134 21.3058 18.2039 20.917 18.5586C20.53 18.9121 19.9777 19.0889 19.2607 19.0889H17.7412V20.707C17.7412 20.9317 17.6825 21.1061 17.5645 21.2305C17.4463 21.3536 17.2718 21.415 17.042 21.415C16.8117 21.415 16.635 21.3539 16.5127 21.2314C16.3929 21.1065 16.333 20.932 16.333 20.708V15.7979C16.333 15.5675 16.395 15.3934 16.5186 15.2764C16.6433 15.1577 16.8211 15.0987 17.0518 15.0986H19.2607ZM17.7412 18.0264H19.0244C19.3897 18.0263 19.6669 17.9464 19.8564 17.7871C20.0478 17.6278 20.1436 17.3948 20.1436 17.0879C20.1435 16.7828 20.0475 16.5528 19.8555 16.3984C19.6665 16.2455 19.3895 16.169 19.0244 16.1689H17.7412V18.0264Z" fill="#262626"/>
<path d="M12.5 2C12.7918 2.00012 13.0689 2.12807 13.2588 2.34961L19.2588 9.34961C19.6179 9.76885 19.5694 10.3994 19.1504 10.7588C18.7311 11.1182 18.1007 11.0695 17.7412 10.6504L12.5 4.53613L7.25879 10.6504C6.89944 11.0696 6.26894 11.118 5.84961 10.7588C5.43028 10.3994 5.38179 9.76894 5.74121 9.34961L11.7412 2.34961C11.9312 2.12809 12.2082 2 12.5 2Z" fill="#262626"/>
</svg>
