<svg width="25" height="24" viewBox="0 0 25 24" fill="none" xmlns="http://www.w3.org/2000/svg">
<path d="M9.5 4C10.2399 4 10.8845 4.40267 11.2305 5H19.5C20.0523 5 20.5 5.44772 20.5 6C20.5 6.55228 20.0523 7 19.5 7H11.2305C10.8845 7.59733 10.2399 8 9.5 8C8.76007 8 8.11546 7.59733 7.76953 7H5.5C4.94772 7 4.5 6.55228 4.5 6C4.5 5.44772 4.94772 5 5.5 5H7.76953C8.11546 4.40267 8.76007 4 9.5 4Z" fill="#262626"/>
<path d="M15.5 10C16.2399 10 16.8845 10.4027 17.2305 11H19.5C20.0523 11 20.5 11.4477 20.5 12C20.5 12.5523 20.0523 13 19.5 13H17.2305C16.8845 13.5973 16.2399 14 15.5 14C14.7601 14 14.1155 13.5973 13.7695 13H5.5C4.94772 13 4.5 12.5523 4.5 12C4.5 11.4477 4.94772 11 5.5 11H13.7695C14.1155 10.4027 14.7601 10 15.5 10Z" fill="#262626"/>
<path d="M9.5 16C10.2399 16 10.8845 16.4027 11.2305 17H19.5C20.0523 17 20.5 17.4477 20.5 18C20.5 18.5523 20.0523 19 19.5 19H11.2305C10.8845 19.5973 10.2399 20 9.5 20C8.76007 20 8.11546 19.5973 7.76953 19H5.5C4.94772 19 4.5 18.5523 4.5 18C4.5 17.4477 4.94772 17 5.5 17H7.76953C8.11546 16.4027 8.76007 16 9.5 16Z" fill="#262626"/>
</svg>
