<svg width="24" height="24" viewBox="0 0 24 24" fill="none" xmlns="http://www.w3.org/2000/svg">
<path fill-rule="evenodd" clip-rule="evenodd" d="M12 2C12.3583 2 12.712 2.0199 13.0605 2.05664C13.0775 2.0584 13.0945 2.05988 13.1113 2.0625C16.809 2.47137 19.8972 4.89553 21.2559 8.21289C21.3962 8.38166 21.481 8.59742 21.4854 8.83301C21.8176 9.82849 22 10.8928 22 12C22 13.1069 21.8174 14.1708 21.4854 15.166C21.4813 15.4007 21.396 15.6146 21.2568 15.7832C19.8989 19.1024 16.8103 21.5275 13.1113 21.9365C13.0945 21.9391 13.0775 21.9406 13.0605 21.9424C12.712 21.9791 12.3583 22 12 22C6.47702 22 2 17.523 2 12C2 6.47702 6.47702 2 12 2ZM10.0352 16.1484C10.2421 16.8847 10.4848 17.5402 10.7275 18.1025C11.0441 18.836 11.3592 19.4082 11.5918 19.792C11.6369 19.8664 11.6816 19.9322 11.7197 19.9922C11.8128 19.9954 11.9062 20 12 20C12.1333 20 12.2658 19.9957 12.3975 19.9893C12.4352 19.9299 12.4799 19.8654 12.5244 19.792C12.757 19.4082 13.072 18.8361 13.3887 18.1025C13.6314 17.5402 13.8741 16.8847 14.0811 16.1484H10.0352ZM5.1582 16.1484C6.07648 17.6597 7.48217 18.8406 9.15625 19.4775C9.0689 19.2943 8.98013 19.0996 8.8916 18.8945C8.55994 18.1261 8.22927 17.2029 7.96875 16.1484H5.1582ZM16.1484 16.1484C15.8879 17.2031 15.5563 18.126 15.2246 18.8945C15.1449 19.0793 15.0633 19.2548 14.9844 19.4219C16.5964 18.7731 17.9494 17.6171 18.8418 16.1484H16.1484ZM16.5205 9.85156C16.606 10.5311 16.6562 11.2488 16.6562 12C16.6562 12.7513 16.606 13.4689 16.5205 14.1484H19.7061C19.8963 13.4646 20 12.7445 20 12C20 11.2555 19.8963 10.5354 19.7061 9.85156H16.5205ZM4.29395 9.85156C4.10371 10.5354 4 11.2555 4 12C4 12.7445 4.10371 13.4646 4.29395 14.1484H7.5957C7.51017 13.4689 7.45997 12.7513 7.45996 12C7.45997 11.2488 7.51018 10.5311 7.5957 9.85156H4.29395ZM9.61328 9.85156C9.51714 10.5256 9.45997 11.2438 9.45996 12C9.45997 12.7562 9.51713 13.4743 9.61328 14.1484H14.5029C14.5991 13.4743 14.6562 12.7562 14.6562 12C14.6562 11.2438 14.5991 10.5256 14.5029 9.85156H9.61328ZM15.2246 5.10449C15.5564 5.87309 15.8878 6.79672 16.1484 7.85156H18.8418C17.9493 6.38277 16.5965 5.22589 14.9844 4.57715C15.0633 4.74426 15.1448 4.91964 15.2246 5.10449ZM9.15625 4.52148C7.48202 5.15844 6.07654 6.34019 5.1582 7.85156H7.96875C8.22934 6.79677 8.55985 5.87306 8.8916 5.10449C8.98019 4.89928 9.06883 4.70479 9.15625 4.52148ZM11.7197 4.00684C11.6814 4.06705 11.6371 4.13328 11.5918 4.20801C11.3592 4.59179 11.0441 5.16406 10.7275 5.89746C10.4848 6.45989 10.2421 7.11519 10.0352 7.85156H14.0811C13.8741 7.11521 13.6314 6.45988 13.3887 5.89746C13.0721 5.16407 12.757 4.59177 12.5244 4.20801C12.4797 4.13431 12.4354 4.06933 12.3975 4.00977C12.2658 4.00332 12.1333 4 12 4C11.9062 4 11.8128 4.00363 11.7197 4.00684Z" fill="#262626"/>
</svg>
