<svg width="24" height="25" viewBox="0 0 24 25" fill="none" xmlns="http://www.w3.org/2000/svg">
<path d="M20 15.5C20.2652 15.5 20.5196 15.6054 20.7071 15.7929C20.8946 15.9804 21 16.2348 21 16.5V20.5C21 21.0304 20.7893 21.5391 20.4142 21.9142C20.0391 22.2893 19.5304 22.5 19 22.5H5C4.46957 22.5 3.96086 22.2893 3.58579 21.9142C3.21071 21.5391 3 21.0304 3 20.5V16.5C3 16.2348 3.10536 15.9804 3.29289 15.7929C3.48043 15.6054 3.73478 15.5 4 15.5C4.26522 15.5 4.51957 15.6054 4.70711 15.7929C4.89464 15.9804 5 16.2348 5 16.5V20.5H19V16.5C19 16.2348 19.1054 15.9804 19.2929 15.7929C19.4804 15.6054 19.7348 15.5 20 15.5ZM12 2.5C12.2652 2.5 12.5196 2.60536 12.7071 2.79289C12.8946 2.98043 13 3.23478 13 3.5V13.743L15.536 11.207C15.6282 11.1115 15.7386 11.0353 15.8606 10.9829C15.9826 10.9305 16.1138 10.9029 16.2466 10.9017C16.3794 10.9006 16.5111 10.9259 16.634 10.9762C16.7568 11.0265 16.8685 11.1007 16.9624 11.1946C17.0563 11.2885 17.1305 11.4001 17.1808 11.523C17.2311 11.6459 17.2564 11.7776 17.2553 11.9104C17.2541 12.0432 17.2265 12.1744 17.1741 12.2964C17.1217 12.4184 17.0455 12.5288 16.95 12.621L12.884 16.687C12.7679 16.8031 12.6301 16.8952 12.4784 16.9581C12.3268 17.0209 12.1642 17.0532 12 17.0532C11.8358 17.0532 11.6732 17.0209 11.5216 16.9581C11.3699 16.8952 11.2321 16.8031 11.116 16.687L7.05 12.621C6.95449 12.5288 6.87831 12.4184 6.8259 12.2964C6.77349 12.1744 6.7459 12.0432 6.74475 11.9104C6.7436 11.7776 6.7689 11.6459 6.81918 11.523C6.86946 11.4001 6.94371 11.2885 7.0376 11.1946C7.1315 11.1007 7.24315 11.0265 7.36605 10.9762C7.48894 10.9259 7.62062 10.9006 7.7534 10.9017C7.88618 10.9029 8.0174 10.9305 8.1394 10.9829C8.26141 11.0353 8.37175 11.1115 8.464 11.207L11 13.743V3.5C11 3.23478 11.1054 2.98043 11.2929 2.79289C11.4804 2.60536 11.7348 2.5 12 2.5Z" fill="#6157E6"/>
</svg>
