<svg width="25" height="24" viewBox="0 0 25 24" fill="none" xmlns="http://www.w3.org/2000/svg">
<path d="M11.8959 2.56604C12.3966 1.81132 13.5265 1.81132 14.0272 2.56604L14.1245 2.73979L16.5158 7.84091L21.8692 8.65745C22.9032 8.81518 23.3255 10.0779 22.5947 10.8269L18.6762 14.8413L19.5994 20.5038C19.7721 21.5634 18.6482 22.3556 17.7099 21.8356L12.9666 19.2052L8.21221 21.8366C7.27392 22.3557 6.15123 21.5639 6.32371 20.5048L7.24589 14.8413L3.32841 10.8269C2.59763 10.0779 3.01988 8.81518 4.05391 8.65745L9.40632 7.84091L11.7985 2.73979L11.8959 2.56604ZM10.8011 9.70901L10.2582 9.79237L5.84808 10.4643L9.44144 14.1463L8.60657 19.2675L12.4709 17.1302L12.9686 16.854L17.3145 19.2645L16.4817 14.1463L20.074 10.4643L15.6648 9.79237L15.122 9.70901L12.9615 5.10003L10.8011 9.70901Z" fill="#D9D9D9"/>
</svg>
