<svg width="24" height="24" viewBox="0 0 24 24" fill="none" xmlns="http://www.w3.org/2000/svg">
<path d="M15.8955 3.00488C16.3874 3.04619 16.8142 3.36771 16.9873 3.83203L17.0205 3.93359L17.7578 6.55566H20.75C21.4404 6.55566 22 7.11531 22 7.80566V19.75C22 20.4404 21.4404 21 20.75 21H3.25C2.55964 21 2 20.4404 2 19.75V7.80566C2 7.11531 2.55964 6.55566 3.25 6.55566H6.24219L6.97949 3.93359C7.135 3.38063 7.6393 3.00053 8.21094 3H15.7891L15.8955 3.00488ZM7.75781 8.55566H4V19H20V8.55566H16.2422L15.2422 5H8.75781L7.75781 8.55566ZM12 9C14.2091 9 16 10.7909 16 13C16 15.2091 14.2091 17 12 17C9.79086 17 8 15.2091 8 13C8 10.7909 9.79086 9 12 9ZM12 11C10.8954 11 10 11.8954 10 13C10 14.1046 10.8954 15 12 15C13.1046 15 14 14.1046 14 13C14 11.8954 13.1046 11 12 11Z" fill="#262626"/>
</svg>
