<svg width="25" height="24" viewBox="0 0 25 24" fill="none" xmlns="http://www.w3.org/2000/svg">
<path d="M22.63 10.82L18.71 14.84L19.64 20.5C19.81 21.56 18.69 22.35 17.75 21.83L13.01 19.2H13V16.86H13.01L17.35 19.26L16.52 14.14L20.11 10.46L15.7 9.79L15.16 9.7L13 5.09V2C13.41 2 13.82 2.19 14.07 2.56L14.16 2.73L16.55 7.84L21.91 8.65C22.94 8.81 23.36 10.07 22.63 10.82Z" fill="#D9D9D9"/>
<path d="M10.3 9.79L5.88999 10.46L9.47999 14.14L8.64999 19.26L12.51 17.12L13 16.86V19.21L8.24999 21.83C7.30999 22.35 6.18999 21.56 6.35999 20.5L7.27999 14.84L3.36999 10.82C2.63999 10.07 3.05999 8.81 4.08999 8.65L9.43999 7.84L11.84 2.73L11.93 2.56C12.19 2.19 12.59 2 13 2V5.09L10.84 9.7L10.3 9.79Z" fill="black"/>
<path d="M13 5.09V16.86L12.51 17.12L8.64999 19.26L9.47999 14.14L5.88999 10.46L10.3 9.79L10.84 9.7L13 5.09Z" fill="black"/>
</svg>
