<svg width="24" height="24" viewBox="0 0 24 24" fill="none" xmlns="http://www.w3.org/2000/svg">
<path d="M21 12C21 16.9706 16.9706 21 12 21C7.02944 21 3 16.9706 3 12C3 7.02943 7.02944 3 12 3C16.9706 3 21 7.02943 21 12Z" fill="#5CB85C"/>
<path d="M15.2443 8.61939C15.5371 8.15133 16.154 8.00937 16.6222 8.302C17.0903 8.5948 17.2322 9.21171 16.9396 9.67993L12.1271 17.3801C11.6754 18.1029 10.6358 18.1798 10.092 17.5002L7.25025 14.0003L7.19068 13.9172C6.91548 13.4915 7.00214 12.9175 7.4065 12.594C7.81083 12.2705 8.3894 12.3123 8.74439 12.6741L8.81275 12.7503L10.9914 15.4231L15.2443 8.61939Z" fill="white"/>
</svg>
