<svg width="24" height="24" viewBox="0 0 24 24" fill="none" xmlns="http://www.w3.org/2000/svg">
<path d="M15.6133 8.27734C15.9196 7.81783 16.5405 7.69365 17 8C17.4595 8.30635 17.5837 8.9272 17.2773 9.38672L12.0107 17.2871C11.5582 17.9658 10.5867 18.036 10.041 17.4297L6.42578 13.4121C6.05635 13.0016 6.08957 12.3695 6.5 12C6.88487 11.6536 7.46445 11.6613 7.83984 12.002L7.91211 12.0742L10.8818 15.374L15.6133 8.27734Z" fill="#262626"/>
<path fill-rule="evenodd" clip-rule="evenodd" d="M12 2C17.5228 2 22 6.47715 22 12C22 17.5228 17.5228 22 12 22C6.47715 22 2 17.5228 2 12C2 6.47715 6.47715 2 12 2ZM12 4C7.58172 4 4 7.58172 4 12C4 16.4183 7.58172 20 12 20C16.4183 20 20 16.4183 20 12C20 7.58172 16.4183 4 12 4Z" fill="#262626"/>
</svg>
