<svg width="24" height="24" viewBox="0 0 24 24" fill="none" xmlns="http://www.w3.org/2000/svg">
<path d="M3.0978 2.00462L3.19965 2.01926L5.52668 2.48314C6.02844 2.58321 6.41577 2.9761 6.51194 3.47048L6.52663 3.57106L6.90957 6.99987H20.7454C21.5416 6.99987 22.1366 7.73076 21.9725 8.50772L20.0725 17.508C19.9502 18.0861 19.438 18.5002 18.8454 18.5002H7.23962C6.59841 18.4999 6.06113 18.0169 5.99384 17.381L5.01446 8.10927L4.59332 4.33573L2.80594 3.98026L2.70702 3.95486C2.22112 3.80589 1.9178 3.3112 2.01949 2.80347C2.1214 2.29589 2.59194 1.95601 3.0978 2.00462ZM7.91736 16.5001H18.2352L19.8189 8.99992H7.12504L7.91736 16.5001Z" fill="#262626"/>
<path d="M9.02021 20.5C9.02021 21.3284 8.3467 22 7.51588 22C6.68506 22 6.01154 21.3284 6.01154 20.5C6.01154 19.6715 6.68506 18.9999 7.51588 18.9999C8.3467 18.9999 9.02021 19.6715 9.02021 20.5Z" fill="#262626"/>
<path d="M20.052 20.5C20.052 21.3284 19.3785 22 18.5477 22C17.7168 22 17.0433 21.3284 17.0433 20.5C17.0433 19.6715 17.7168 18.9999 18.5477 18.9999C19.3785 18.9999 20.052 19.6715 20.052 20.5Z" fill="#262626"/>
</svg>
