<svg width="24" height="24" viewBox="0 0 24 24" fill="none" xmlns="http://www.w3.org/2000/svg">
<path d="M11.9999 4.71082C14.2939 2.42295 17.9976 2.42971 20.2831 4.73133C22.5717 7.03634 22.5717 10.771 20.2831 13.0761L12.8867 20.5253C12.3978 21.0177 11.6021 21.0177 11.1132 20.5253L3.71674 13.0761C1.42824 10.771 1.42824 7.03634 3.71674 4.73133C6.00227 2.42971 9.70595 2.42295 11.9999 4.71082ZM18.8642 6.14051C17.354 4.6196 14.9086 4.61965 13.3984 6.14051L11.9999 7.54871L10.6015 6.14051C9.09128 4.61965 6.64588 4.6196 5.13569 6.14051C3.62147 7.66565 3.62147 10.1417 5.13569 11.6669L11.9999 18.5809L18.8642 11.6669C20.3784 10.1417 20.3784 7.66565 18.8642 6.14051Z" fill="#262626"/>
</svg>
