<svg width="25" height="24" viewBox="0 0 25 24" fill="none" xmlns="http://www.w3.org/2000/svg">
<path d="M13.7161 3C18.5928 3.00011 22.5002 7.05551 22.5002 12C22.5002 16.9445 18.5928 20.9999 13.7161 21C13.164 20.9998 12.7161 20.5522 12.7161 20C12.7161 19.4478 13.164 19.0002 13.7161 19C17.4369 18.9999 20.5002 15.8919 20.5002 12C20.5002 8.10807 17.4369 5.00011 13.7161 5C10.1526 5.0002 7.1944 7.85094 6.95044 11.5107L7.65161 10.7988C8.03883 10.4051 8.67287 10.3999 9.06665 10.7871C9.46001 11.1743 9.46529 11.8075 9.07837 12.2012L6.17993 15.1484L2.84497 12.2549C2.42798 11.8929 2.38347 11.2618 2.74536 10.8447C3.0848 10.4538 3.66107 10.3897 4.07544 10.6816L4.15552 10.7451L4.95044 11.4355C5.23433 6.75067 9.02637 3.0002 13.7161 3ZM13.5002 8C14.0524 8.00011 14.5002 8.44778 14.5002 9V12H16.5002C17.0524 12.0001 17.5002 12.4478 17.5002 13C17.5002 13.5522 17.0524 13.9999 16.5002 14H13.7502C13.0599 14 12.5002 13.4404 12.5002 12.75V9C12.5002 8.44772 12.948 8 13.5002 8Z" fill="#262626"/>
</svg>
