<svg width="24" height="24" viewBox="0 0 24 24" fill="none" xmlns="http://www.w3.org/2000/svg">
<path d="M11.6641 21.7472C11.2513 22.1142 10.6199 22.077 10.253 21.6642L2.25296 12.6642C1.91617 12.2854 1.91617 11.715 2.25296 11.3361L10.253 2.33611C10.6199 1.92333 11.2513 1.88619 11.6641 2.25311C12.0769 2.62002 12.114 3.25146 11.7471 3.66424L5.22659 11.0002L21 11.0002C21.5523 11.0002 22 11.4479 22 12.0002C22 12.5525 21.5523 13.0002 21 13.0002L5.22659 13.0002L11.7471 20.3361L11.8116 20.4152C12.1085 20.8261 12.0512 21.4032 11.6641 21.7472Z" fill="#262626"/>
</svg>
