<svg width="24" height="24" viewBox="0 0 24 24" fill="none" xmlns="http://www.w3.org/2000/svg">
<path d="M17.2929 5.29289C17.6835 4.90237 18.3165 4.90237 18.707 5.29289C19.0974 5.68343 19.0975 6.31647 18.707 6.70696L13.414 11.9999L18.707 17.2929L18.7754 17.3691C19.0956 17.7618 19.0731 18.3409 18.707 18.707C18.3409 19.073 17.7619 19.0955 17.3691 18.7753L17.2929 18.707L12 13.414L6.70701 18.707C6.31652 19.0974 5.68347 19.0973 5.29294 18.707C4.90243 18.3164 4.90244 17.6834 5.29294 17.2929L10.5859 11.9999L5.29294 6.70696C4.90243 6.31644 4.90244 5.68342 5.29294 5.29289C5.68347 4.90237 6.31648 4.90237 6.70701 5.29289L12 10.5859L17.2929 5.29289Z" fill="#262626"/>
</svg>
