<svg width="24" height="24" viewBox="0 0 24 24" fill="none" xmlns="http://www.w3.org/2000/svg">
<path d="M3.09796 2.0046L3.19982 2.01925L5.52684 2.48312C6.02853 2.58317 6.41586 2.97616 6.5121 3.47043L6.52679 3.57102L6.90973 6.99975H20.7455C21.5417 6.99975 22.1366 7.73068 21.9727 8.50758L20.0727 17.5076C19.9505 18.0859 19.4382 18.4998 18.8455 18.4998H7.23978C6.59853 18.4995 6.06117 18.0166 5.99401 17.3807L5.01462 8.10914L4.59348 4.33567L2.8061 3.9802L2.70719 3.95481C2.22132 3.80573 1.91782 3.31118 2.01966 2.80344C2.12161 2.29598 2.5922 1.95608 3.09796 2.0046Z" fill="#262626"/>
<path d="M9.02047 20.5C9.02047 21.3284 8.34696 22 7.51614 22C6.68532 22 6.0118 21.3284 6.0118 20.5C6.0118 19.6716 6.68532 19 7.51614 19C8.34696 19 9.02047 19.6716 9.02047 20.5Z" fill="#262626"/>
<path d="M20.0523 20.5C20.0523 21.3284 19.3787 22 18.5479 22C17.7171 22 17.0436 21.3284 17.0436 20.5C17.0436 19.6716 17.7171 19 18.5479 19C19.3787 19 20.0523 19.6716 20.0523 20.5Z" fill="#262626"/>
</svg>
