<svg width="25" height="24" viewBox="0 0 25 24" fill="none" xmlns="http://www.w3.org/2000/svg">
<path d="M3.79258 3.29289C4.1831 2.90237 4.81612 2.90237 5.20664 3.29289L21.2066 19.2929L21.275 19.3691C21.5954 19.7618 21.5728 20.3408 21.2066 20.707C20.8405 21.0731 20.2615 21.0957 19.8688 20.7753L19.7926 20.707L17.2623 18.1767C16.1263 18.7431 14.8968 19.1052 13.6305 19.2402C12.1083 19.4023 10.5687 19.235 9.1168 18.7499C7.66483 18.2647 6.33444 17.4724 5.21543 16.4277C4.09637 15.3829 3.21507 14.1097 2.63145 12.6943C2.62693 12.6833 2.62288 12.6722 2.61875 12.6611C2.46042 12.2345 2.46042 11.7654 2.61875 11.3388L2.63145 11.3056C3.34983 9.56336 4.51318 8.04928 5.9957 6.91008L3.79258 4.70696L3.72422 4.63078C3.40387 4.23801 3.42646 3.65901 3.79258 3.29289ZM7.42539 8.33977C6.14021 9.26683 5.12951 10.531 4.50938 11.9989C4.98357 13.1221 5.68826 14.1334 6.57969 14.9657C7.48898 15.8147 8.57076 16.4582 9.75059 16.8525C10.9304 17.2467 12.1816 17.3827 13.4186 17.2509C14.2215 17.1653 15.0059 16.9661 15.7506 16.665L14.3102 15.2245C13.7521 15.5379 13.1182 15.7058 12.4674 15.7001C11.4973 15.6917 10.5694 15.3022 9.8834 14.6161C9.19744 13.9301 8.80785 13.0022 8.79942 12.0322C8.79377 11.3812 8.96057 10.7465 9.27403 10.1884L7.42539 8.33977ZM11.2408 4.77532C13.5539 4.49964 15.8938 4.98891 17.9029 6.16789C19.912 7.34686 21.4802 9.15082 22.3678 11.3046C22.3723 11.3155 22.3764 11.3268 22.3805 11.3378C22.5388 11.7644 22.5388 12.2335 22.3805 12.6601C22.3763 12.6712 22.3723 12.6823 22.3678 12.6933C22.0029 13.578 21.5208 14.4098 20.9342 15.1659L20.8668 15.2441C20.5173 15.6107 19.9398 15.6608 19.5309 15.3437C19.0945 15.0051 19.0156 14.3767 19.3541 13.9404L19.5289 13.707C19.9129 13.176 20.2337 12.6021 20.4889 11.998C19.7628 10.2785 18.5021 8.83784 16.8912 7.8925C15.2588 6.93457 13.3575 6.53774 11.4781 6.76164L11.3756 6.76848C10.8688 6.77731 10.4281 6.40076 10.3668 5.88664C10.3014 5.33831 10.6925 4.84077 11.2408 4.77532ZM10.8209 11.7353C10.8064 11.8271 10.7986 11.9204 10.7994 12.0146C10.8033 12.4603 10.9823 12.8869 11.2975 13.2021C11.6126 13.5173 12.0393 13.6962 12.485 13.7001C12.5788 13.7009 12.6717 13.6921 12.7633 13.6777L10.8209 11.7353Z" fill="#262626"/>
</svg>
