<svg width="25" height="24" viewBox="0 0 25 24" fill="none" xmlns="http://www.w3.org/2000/svg">
<path d="M8.90918 5.5498C9.16576 5.55213 9.41188 5.65226 9.59961 5.83984L12.0195 8.25977L12.0801 8.33008C12.14 8.40007 12.1905 8.49011 12.2305 8.58008C12.3004 8.76002 12.32 8.96047 12.29 9.15039C12.26 9.29021 12.2002 9.43016 12.1104 9.54004L12.0195 9.65039L9.59961 12.0703C9.50973 12.1601 9.40003 12.2401 9.28027 12.29C9.16039 12.34 9.03026 12.3701 8.90039 12.3701C8.77039 12.3701 8.63953 12.3498 8.51953 12.2998C8.39972 12.2498 8.29007 12.1797 8.2002 12.0898C8.1102 11.9998 8.03023 11.8895 7.99023 11.7695C7.94033 11.6496 7.91992 11.5195 7.91992 11.3896C7.91998 11.2598 7.95005 11.1297 8 11.0098C8.04993 10.89 8.11998 10.7803 8.21973 10.6904L8.95996 9.9502H6.5C6.24 9.9502 5.9898 9.85016 5.7998 9.66016C5.61982 9.48016 5.50977 9.22995 5.50977 8.95996C5.50978 8.69997 5.60981 8.44976 5.7998 8.25977C5.9798 8.07978 6.23001 7.96973 6.5 7.96973H8.95996L8.21973 7.23047C8.03974 7.05048 7.9297 6.80003 7.92969 6.54004C7.92969 6.28007 8.02976 6.02984 8.21973 5.83984C8.39723 5.66234 8.6528 5.55281 8.90918 5.5498Z" fill="#262626"/>
<path fill-rule="evenodd" clip-rule="evenodd" d="M17.96 2C19.16 2 20.3199 2.48008 21.1699 3.33008C22.0199 4.18008 22.5 5.33004 22.5 6.54004V17.4697C22.5 18.6697 22.0198 19.8297 21.1699 20.6797C20.3199 21.5297 19.17 22.0098 17.96 22.0098H7.04004C5.84004 22.0098 4.68008 21.5297 3.83008 20.6797C2.98015 19.8297 2.5 18.6797 2.5 17.4697V6.54004C2.5 5.34004 2.98008 4.18008 3.83008 3.33008C4.68008 2.48008 5.83004 2 7.04004 2H17.96ZM16.6904 11.7998C16.6004 11.8698 16.4898 11.9797 16.2998 12.1797L8.45996 20.0195H17.9697C18.6497 20.0195 19.3 19.7495 19.79 19.2695C20.2798 18.7896 20.54 18.13 20.54 17.4502V15.6104L17.0898 12.1699C16.9599 12.04 16.8301 11.91 16.7002 11.79L16.6904 11.7998ZM7.04004 3.96973C6.36004 3.96973 5.70973 4.23973 5.21973 4.71973C4.73973 5.19973 4.46973 5.86004 4.46973 6.54004V17.4697C4.46973 18.1497 4.7398 18.8001 5.21973 19.29C5.43973 19.51 5.71023 19.6903 5.99023 19.8203C6.06023 19.7103 6.12969 19.6196 6.17969 19.5596L6.41016 19.2998L14.9199 10.79C15.0899 10.6201 15.2602 10.4503 15.4102 10.3203L15.54 10.21C15.68 10.1 15.8497 9.99968 16.0596 9.92969L16.0898 9.91992C16.4198 9.81992 16.7704 9.80988 17.1104 9.87988L17.25 9.91992L17.2803 9.92969C17.5502 10.0297 17.7697 10.1803 17.9297 10.3203L18.1699 10.54L20.4902 12.8604V6.5498C20.4902 5.87004 20.22 5.22038 19.7402 4.73047C19.2602 4.25047 18.5999 3.98047 17.9199 3.98047H7.04004V3.96973Z" fill="#262626"/>
</svg>
