<svg width="24" height="24" viewBox="0 0 24 24" fill="none" xmlns="http://www.w3.org/2000/svg">
<path fill-rule="evenodd" clip-rule="evenodd" d="M17 2C19.7614 2 22 4.23858 22 7V17C22 19.7614 19.7614 22 17 22H7C4.23858 22 2 19.7614 2 17V7C2 4.23858 4.23858 2 7 2H17ZM7 4C5.34315 4 4 5.34315 4 7V17C4 18.6569 5.34315 20 7 20H11V14H8.25C8.11193 14 8 13.8881 8 13.75V12.25C8 12.1119 8.11193 12 8.25 12H11V9.53418C11.0002 7.60132 12.5671 6.03418 14.5 6.03418H15.75C15.8881 6.03418 16 6.14611 16 6.28418V7.78418C16 7.92225 15.8881 8.03418 15.75 8.03418H14.5C13.6717 8.03418 13.0002 8.70589 13 9.53418V12H15.6797C15.8423 12 15.9613 12.1528 15.9219 12.3105L15.5469 13.8105C15.519 13.9218 15.4194 14 15.3047 14H13V20H17C18.6569 20 20 18.6569 20 17V7C20 5.34315 18.6569 4 17 4H7Z" fill="#262626"/>
</svg>
