<svg width="28" height="28" viewBox="0 0 28 28" fill="none" xmlns="http://www.w3.org/2000/svg">
<path d="M6.81725 25.6667C6.18325 25.6667 5.65114 25.1346 5.65114 24.5006V22.3495H3.50008C2.86609 22.3495 2.33398 21.8174 2.33398 21.1834C2.33398 20.5495 2.86609 20.0173 3.50008 20.0173H5.65114V7.92613C5.65114 6.6921 6.69271 5.65053 7.92674 5.65053H20.018V3.49947C20.018 2.86548 20.5501 2.33337 21.1841 2.33337C21.8181 2.33337 22.3502 2.86548 22.3502 3.49947V5.65053H24.5012C25.1352 5.65053 25.6673 6.18264 25.6673 6.81664C25.6673 7.45063 25.1352 7.98274 24.5012 7.98274H22.3502V20.074C22.3502 21.308 21.3086 22.3495 20.0746 22.3495H7.98335V24.5006C7.98335 25.1346 7.45124 25.6667 6.81725 25.6667ZM20.0746 20.0173L20.018 7.99406H7.91542V7.65442L7.97202 20.0173H20.0632H20.0746Z" fill="#6157E6"/>
</svg>
