<svg width="25" height="24" viewBox="0 0 25 24" fill="none" xmlns="http://www.w3.org/2000/svg">
<rect width="24" height="24" transform="translate(0.5)" fill="white"/>
<path d="M19.5 17C20.0523 17 20.5 17.4477 20.5 18C20.5 18.5523 20.0523 19 19.5 19H5.5C4.94772 19 4.5 18.5523 4.5 18C4.5 17.4477 4.94772 17 5.5 17H19.5Z" fill="#262626"/>
<path d="M19.5 11C20.0523 11 20.5 11.4477 20.5 12C20.5 12.5523 20.0523 13 19.5 13H5.5C4.94772 13 4.5 12.5523 4.5 12C4.5 11.4477 4.94772 11 5.5 11H19.5Z" fill="#262626"/>
<path d="M19.5 5C20.0523 5 20.5 5.44772 20.5 6C20.5 6.55228 20.0523 7 19.5 7H5.5C4.94772 7 4.5 6.55228 4.5 6C4.5 5.44772 4.94772 5 5.5 5H19.5Z" fill="#262626"/>
</svg>
