<svg width="24" height="24" viewBox="0 0 24 24" fill="none" xmlns="http://www.w3.org/2000/svg">
<path d="M5.84279 22C5.29937 22 4.84328 21.5439 4.84328 21.0005V19.1567H2.99951C2.45609 19.1567 2 18.7006 2 18.1572C2 17.6138 2.45609 17.1577 2.99951 17.1577H4.84328V6.79379C4.84328 5.73605 5.73605 4.84328 6.79379 4.84328H17.1577V2.99951C17.1577 2.45609 17.6138 2 18.1572 2C18.7006 2 19.1567 2.45609 19.1567 2.99951V4.84328H21.0005C21.5439 4.84328 22 5.29937 22 5.84279C22 6.38622 21.5439 6.84231 21.0005 6.84231H19.1567V17.2062C19.1567 18.264 18.264 19.1567 17.2062 19.1567H6.84231V21.0005C6.84231 21.5439 6.38622 22 5.84279 22ZM17.2062 17.1577L17.1577 6.85201H6.78409V6.56089L6.83261 17.1577H17.1965H17.2062Z" fill="#262626"/>
</svg>
