<svg width="24" height="24" viewBox="0 0 24 24" fill="none" xmlns="http://www.w3.org/2000/svg">
<path d="M10 10C10.5523 10 11 10.4477 11 11V17C11 17.5523 10.5523 18 10 18C9.44772 18 9 17.5523 9 17V11C9 10.4477 9.44772 10 10 10Z" fill="#262626"/>
<path d="M14 10C14.5523 10 15 10.4477 15 11V17C15 17.5523 14.5523 18 14 18C13.4477 18 13 17.5523 13 17V11C13 10.4477 13.4477 10 14 10Z" fill="#262626"/>
<path fill-rule="evenodd" clip-rule="evenodd" d="M14.2041 2.01074C15.2128 2.113 16 2.96435 16 4V5.5H21C21.5523 5.5 22 5.94772 22 6.5C22 7.05228 21.5523 7.5 21 7.5H19.9336L19.1582 18.7412C19.0314 20.5762 17.5054 22 15.666 22H8.33398C6.49458 22 4.96856 20.5762 4.8418 18.7412L4.06641 7.5H3C2.44772 7.5 2 7.05228 2 6.5C2 5.94772 2.44772 5.5 3 5.5H8V4C8 2.89543 8.89543 2 10 2H14L14.2041 2.01074ZM6.83691 18.6035C6.8913 19.3899 7.54571 20 8.33398 20H15.666C16.4543 20 17.1087 19.3899 17.1631 18.6035L17.9287 7.5H6.07129L6.83691 18.6035ZM10 5.5H14V4H10V5.5Z" fill="#262626"/>
</svg>
