<svg width="28" height="28" viewBox="0 0 28 28" fill="none" xmlns="http://www.w3.org/2000/svg">
<path d="M10.4092 7.5498C10.6658 7.55213 10.9119 7.65226 11.0996 7.83984L13.5195 10.2598L13.5801 10.3301C13.64 10.4001 13.6905 10.4901 13.7305 10.5801C13.8004 10.76 13.82 10.9605 13.79 11.1504C13.76 11.2902 13.7002 11.4302 13.6104 11.54L13.5195 11.6504L11.0996 14.0703C11.0097 14.1601 10.9 14.2401 10.7803 14.29C10.6604 14.34 10.5303 14.3701 10.4004 14.3701C10.2704 14.3701 10.1395 14.3498 10.0195 14.2998C9.89972 14.2498 9.79007 14.1797 9.7002 14.0898C9.6102 13.9998 9.53023 13.8895 9.49023 13.7695C9.44033 13.6496 9.41992 13.5195 9.41992 13.3896C9.41998 13.2598 9.45005 13.1297 9.5 13.0098C9.54993 12.89 9.61998 12.7803 9.71973 12.6904L10.46 11.9502H8C7.74 11.9502 7.4898 11.8502 7.2998 11.6602C7.11982 11.4802 7.00977 11.23 7.00977 10.96C7.00978 10.7 7.10981 10.4498 7.2998 10.2598C7.4798 10.0798 7.73001 9.96973 8 9.96973H10.46L9.71973 9.23047C9.53974 9.05048 9.4297 8.80003 9.42969 8.54004C9.42969 8.28007 9.52976 8.02984 9.71973 7.83984C9.89723 7.66234 10.1528 7.55281 10.4092 7.5498Z" fill="#6157E6"/>
<path fill-rule="evenodd" clip-rule="evenodd" d="M19.46 4C20.66 4 21.8199 4.48008 22.6699 5.33008C23.5199 6.18008 24 7.33004 24 8.54004V19.4697C24 20.6697 23.5198 21.8297 22.6699 22.6797C21.8199 23.5297 20.67 24.0098 19.46 24.0098H8.54004C7.34004 24.0098 6.18008 23.5297 5.33008 22.6797C4.48015 21.8297 4 20.6797 4 19.4697V8.54004C4 7.34004 4.48008 6.18008 5.33008 5.33008C6.18008 4.48008 7.33004 4 8.54004 4H19.46ZM18.1904 13.7998C18.1004 13.8698 17.9898 13.9797 17.7998 14.1797L9.95996 22.0195H19.4697C20.1497 22.0195 20.8 21.7495 21.29 21.2695C21.7798 20.7896 22.04 20.13 22.04 19.4502V17.6104L18.5898 14.1699C18.4599 14.04 18.3301 13.91 18.2002 13.79L18.1904 13.7998ZM8.54004 5.96973C7.86004 5.96973 7.20973 6.23973 6.71973 6.71973C6.23973 7.19973 5.96973 7.86004 5.96973 8.54004V19.4697C5.96973 20.1497 6.2398 20.8001 6.71973 21.29C6.93973 21.51 7.21023 21.6903 7.49023 21.8203C7.56023 21.7103 7.62969 21.6196 7.67969 21.5596L7.91016 21.2998L16.4199 12.79C16.5899 12.6201 16.7602 12.4503 16.9102 12.3203L17.04 12.21C17.18 12.1 17.3497 11.9997 17.5596 11.9297L17.5898 11.9199C17.9198 11.8199 18.2704 11.8099 18.6104 11.8799L18.75 11.9199L18.7803 11.9297C19.0502 12.0297 19.2697 12.1803 19.4297 12.3203L19.6699 12.54L21.9902 14.8604V8.5498C21.9902 7.87004 21.72 7.22038 21.2402 6.73047C20.7602 6.25047 20.0999 5.98047 19.4199 5.98047H8.54004V5.96973Z" fill="#6157E6"/>
</svg>
