<svg width="25" height="24" viewBox="0 0 25 24" fill="none" xmlns="http://www.w3.org/2000/svg">
<path d="M12.7148 2.04469C13.1108 1.96761 13.5642 1.99304 14.0068 2.09938C14.9094 2.31625 15.9518 2.91545 16.6436 4.08473C17.1234 4.89578 17.2795 5.73344 17.2305 6.54762C17.1806 7.36255 16.9463 8.13298 16.7598 8.76442L16.752 8.78785L16.7217 8.88063L20.7021 8.87575L20.8467 8.88356C21.5593 8.96428 22.0712 9.64013 21.9307 10.364L19.9053 20.7879C19.7912 21.3752 19.2771 21.7995 18.6787 21.7996H6.93262C6.24245 21.7994 5.68262 21.2398 5.68262 20.5496V10.1257C5.68262 9.43552 6.24245 8.87596 6.93262 8.87575H9.6377C10.0121 8.2864 10.523 7.43885 10.7891 6.99C11.4172 5.92616 11.4961 4.82463 11.5186 4.32301V3.22731L11.5273 3.16188C11.5846 2.73092 11.8516 2.45121 12.0713 2.30153C12.2861 2.15521 12.5202 2.0826 12.7148 2.04469ZM2.5 20.7927V9.87575C2.5 9.32346 2.94772 8.87575 3.5 8.87575C4.05228 8.87575 4.5 9.32346 4.5 9.87575V20.7927C4.49995 21.345 4.05226 21.7927 3.5 21.7927C2.94774 21.7927 2.50005 21.345 2.5 20.7927ZM13.5186 4.37575L13.5176 4.39821C13.4925 4.97249 13.4033 6.49628 12.5098 8.00856L12.5088 8.01051C12.1744 8.57472 11.3881 9.88039 11.0029 10.4412L10.7051 10.8757H7.68262V19.7996H18.0605L19.793 10.8767L13.9756 10.8845L14.8408 8.19801C15.0407 7.5215 15.2009 6.97449 15.2344 6.42653C15.262 5.96617 15.1773 5.5336 14.9229 5.10328C14.5403 4.45656 13.9842 4.15052 13.54 4.04371C13.5329 4.042 13.5255 4.04042 13.5186 4.03883V4.37575Z" fill="#262626"/>
</svg>
