<svg width="25" height="24" viewBox="0 0 25 24" fill="none" xmlns="http://www.w3.org/2000/svg">
<path d="M22.2471 12.3359C22.614 12.7487 22.5768 13.3802 22.1641 13.7471L13.1641 21.7471C12.7852 22.0839 12.2148 22.0839 11.8359 21.7471L2.83593 13.7471C2.42315 13.3802 2.38601 12.7487 2.75292 12.3359C3.11984 11.9232 3.75127 11.886 4.16406 12.2529L11.5 18.7734L11.5 3C11.5 2.44772 11.9477 2 12.5 2C13.0523 2 13.5 2.44772 13.5 3L13.5 18.7734L20.8359 12.2529L20.915 12.1885C21.326 11.8915 21.903 11.9489 22.2471 12.3359Z" fill="#262626"/>
</svg>
