<svg width="24" height="24" viewBox="0 0 24 24" fill="none" xmlns="http://www.w3.org/2000/svg">
<path fill-rule="evenodd" clip-rule="evenodd" d="M13.75 7C14.4404 7 15 7.55964 15 8.25V19.75C15 20.4404 14.4404 21 13.75 21H5.25C4.55964 21 4 20.4404 4 19.75V8.25C4 7.55964 4.55965 7 5.25 7H13.75ZM6 19H13V9H6V19Z" fill="#8F8F8F"/>
<path d="M18.75 3C19.4404 3 20 3.55964 20 4.25V15.75C20 16.4404 19.4404 17 18.75 17H16.25C16.1119 17 16 16.8881 16 16.75V15.25C16 15.1119 16.1119 15 16.25 15H18V5H11V5.75C11 5.88807 10.8881 6 10.75 6H9.25C9.11193 6 9 5.88807 9 5.75V4.25C9 3.55964 9.55964 3 10.25 3H18.75Z" fill="#8F8F8F"/>
</svg>
