<svg width="20" height="20" viewBox="0 0 20 20" fill="none" xmlns="http://www.w3.org/2000/svg">
<path d="M0 10C0 4.47715 4.47715 0 10 0C15.5228 0 20 4.47715 20 10C20 15.5228 15.5228 20 10 20C4.47715 20 0 15.5228 0 10Z" fill="#6157E6"/>
<path d="M13.5292 5.52864C13.7896 5.26829 14.2116 5.26829 14.4719 5.52864C14.7322 5.78899 14.7323 6.21102 14.4719 6.47134L10.9433 9.99999L14.4719 13.5286L14.5175 13.5794C14.731 13.8413 14.716 14.2273 14.4719 14.4713C14.2279 14.7154 13.8419 14.7304 13.58 14.5169L13.5292 14.4713L10.0006 10.9427L6.47195 14.4713C6.21162 14.7317 5.78959 14.7316 5.52924 14.4713C5.26889 14.211 5.2689 13.789 5.52924 13.5286L9.05788 9.99999L5.52924 6.47134C5.26889 6.211 5.2689 5.78899 5.52924 5.52864C5.78959 5.26829 6.2116 5.26829 6.47195 5.52864L10.0006 9.05728L13.5292 5.52864Z" fill="#EEF2FF"/>
</svg>
