<svg width="25" height="24" viewBox="0 0 25 24" fill="none" xmlns="http://www.w3.org/2000/svg">
<path d="M21.5 12C21.5 16.9706 17.4706 21 12.5 21C7.52944 21 3.5 16.9706 3.5 12C3.5 7.02944 7.52944 3 12.5 3C17.4706 3 21.5 7.02944 21.5 12Z" fill="#8C8C8C"/>
<path d="M13.2502 6C13.3882 6.00008 13.5002 6.11198 13.5002 6.25V7.07422C13.7807 7.1317 14.0332 7.22171 14.257 7.34668C14.6176 7.54402 14.9409 7.79053 15.2277 8.08496C15.3134 8.173 15.3157 8.31154 15.2375 8.40625L14.6086 9.16602C14.5152 9.27893 14.3452 9.28741 14.2345 9.19141C14.0428 9.0249 13.8554 8.8954 13.673 8.80273C13.4278 8.66926 13.1405 8.60254 12.8107 8.60254C12.4386 8.60255 12.1513 8.6959 11.9484 8.88281C11.7455 9.06078 11.6438 9.3363 11.6437 9.70996C11.6437 9.94138 11.7115 10.1424 11.8468 10.3115C11.9905 10.4804 12.1765 10.6313 12.4045 10.7646C12.6328 10.8982 12.8829 11.0363 13.1535 11.1787C13.4324 11.3122 13.7072 11.459 13.9777 11.6191C14.2566 11.7793 14.5102 11.971 14.7384 12.1934C14.9668 12.407 15.149 12.6699 15.2843 12.9814C15.4281 13.284 15.5002 13.649 15.5002 14.0762C15.5001 14.6457 15.3813 15.1527 15.1447 15.5977C14.9164 16.0338 14.5697 16.3768 14.1046 16.626C13.9205 16.7265 13.7187 16.8053 13.5002 16.8652V17.75C13.5002 17.888 13.3882 17.9999 13.2502 18H11.7502C11.6121 18 11.5002 17.8881 11.5002 17.75V16.874C11.4722 16.8669 11.4434 16.8613 11.4152 16.8535C11.06 16.7556 10.7134 16.6212 10.3752 16.4521C10.107 16.3074 9.86347 16.1391 9.64566 15.9473C9.55844 15.8701 9.54341 15.7408 9.60465 15.6416L10.172 14.7236C10.2524 14.5937 10.4297 14.5661 10.5509 14.6592C10.8205 14.866 11.0874 15.032 11.3517 15.1572C11.6983 15.3174 12.0536 15.3974 12.4171 15.3975C12.8653 15.3975 13.1917 15.3003 13.3947 15.1045C13.6061 14.8998 13.7111 14.6054 13.7111 14.2227C13.711 13.9647 13.6432 13.7425 13.508 13.5557C13.3727 13.3688 13.1871 13.1992 12.9503 13.0479C12.7221 12.8966 12.4728 12.7498 12.2023 12.6074C11.9317 12.4561 11.6562 12.3008 11.3771 12.1406C11.1065 11.9804 10.8532 11.7927 10.6164 11.5791C10.3881 11.3655 10.2057 11.1168 10.0705 10.832C9.93516 10.5383 9.86832 10.1906 9.86832 9.79004C9.86837 9.22944 9.98183 8.73954 10.2101 8.32129C10.4469 7.90312 10.7767 7.57805 11.1994 7.34668C11.2956 7.29502 11.3963 7.25009 11.5002 7.20996V6.25C11.5002 6.11193 11.6121 6 11.7502 6H13.2502Z" fill="white"/>
</svg>
