<svg width="24" height="24" viewBox="0 0 24 24" fill="none" xmlns="http://www.w3.org/2000/svg">
<path d="M17.2929 5.29295C17.6834 4.90243 18.3164 4.90243 18.7069 5.29295C19.0973 5.68349 19.0974 6.31654 18.7069 6.70702L13.414 12L18.7069 17.293L18.7753 17.3691C19.0955 17.7619 19.073 18.3409 18.7069 18.707C18.3409 19.0731 17.7618 19.0956 17.3691 18.7754L17.2929 18.707L11.9999 13.414L6.70694 18.707C6.31646 19.0975 5.68341 19.0974 5.29288 18.707C4.90237 18.3165 4.90238 17.6835 5.29288 17.293L10.5859 12L5.29288 6.70702C4.90237 6.3165 4.90238 5.68348 5.29288 5.29295C5.68341 4.90243 6.31642 4.90243 6.70694 5.29295L11.9999 10.5859L17.2929 5.29295Z" fill="#6157E6"/>
</svg>
