<svg width="25" height="24" viewBox="0 0 25 24" fill="none" xmlns="http://www.w3.org/2000/svg">
<path d="M12.5 5C14.6035 5 16.6636 5.59484 18.4189 6.71387C20.0648 7.76319 21.3756 9.23138 22.2021 10.9561L22.3613 11.3047L22.376 11.3389C22.5418 11.7646 22.5418 12.2354 22.376 12.6611C22.3715 12.6725 22.3662 12.6841 22.3613 12.6953C21.5493 14.5708 20.1746 16.1668 18.4189 17.2861C16.7732 18.3353 14.8596 18.9238 12.8935 18.9932L12.5 19C10.3965 19 8.33637 18.4052 6.58104 17.2861C4.82541 16.1668 3.4507 14.5708 2.63866 12.6953C2.63379 12.6841 2.62846 12.6725 2.62401 12.6611C2.45822 12.2354 2.45822 11.7646 2.62401 11.3389L2.63866 11.3047C3.4507 9.42922 4.82541 7.83318 6.58104 6.71387C8.33637 5.59484 10.3965 5 12.5 5ZM12.5 7C10.7715 7 9.08541 7.48929 7.65624 8.40039C6.25934 9.291 5.17272 10.5438 4.51854 12C5.17272 13.4562 6.25934 14.709 7.65624 15.5996C9.08541 16.5107 10.7715 17 12.5 17L12.8232 16.9941C14.438 16.9371 16.0038 16.4538 17.3437 15.5996C18.7405 14.7091 19.8263 13.456 20.4805 12C19.8263 10.544 18.7405 9.29092 17.3437 8.40039C15.9146 7.48929 14.2284 7 12.5 7ZM14.2002 12C14.2002 11.1773 13.4852 10.4287 12.5 10.4287C11.5148 10.4287 10.7998 11.1773 10.7998 12C10.7998 12.8227 11.5148 13.5713 12.5 13.5713C13.4852 13.5713 14.2002 12.8227 14.2002 12ZM16.2002 12C16.2002 14.0179 14.497 15.5713 12.5 15.5713C10.503 15.5713 8.79979 14.0179 8.79979 12C8.79979 9.98214 10.503 8.42871 12.5 8.42871C14.497 8.42871 16.2002 9.98214 16.2002 12Z" fill="#262626"/>
</svg>
